<svg width="409" height="426" viewBox="0 0 409 426" fill="none" xmlns="http://www.w3.org/2000/svg">
<path fill-rule="evenodd" clip-rule="evenodd" d="M267.296 299.784C267.496 299.623 267.702 299.477 267.915 299.344C269.09 298.609 270.05 297.288 270.244 295.916C270.436 294.554 269.558 292.835 268.226 292.49C264.564 291.543 261.164 289.453 258.607 286.283C252.282 278.439 253.513 266.954 261.356 260.629C262.195 259.952 262.355 257.951 261.867 256.99C261.642 256.548 261.433 256.053 261.253 255.522C260.907 254.503 259.914 253.788 258.854 253.598C258.221 253.485 257.595 253.272 256.998 252.952C253.945 251.317 252.794 247.517 254.429 244.463C256.063 241.41 259.864 240.259 262.917 241.894C265.971 243.528 267.121 247.329 265.487 250.382C265.292 250.747 265.066 251.084 264.815 251.392C264.106 252.262 263.77 253.482 264.131 254.545C264.586 255.884 266.982 257.478 268.354 257.134C275.041 255.455 282.397 257.658 287.01 263.378C293.335 271.221 292.104 282.706 284.261 289.031C282.141 290.741 279.755 291.898 277.277 292.523C275.666 292.929 274.414 294.827 274.182 296.473C273.999 297.767 274.586 299.205 275.536 300.103C275.74 300.296 275.934 300.505 276.115 300.729C278.289 303.425 277.866 307.374 275.17 309.548C272.474 311.722 268.526 311.299 266.351 308.603C264.177 305.907 264.6 301.959 267.296 299.784ZM278.129 270.537C275.757 267.595 271.45 267.134 268.509 269.506C265.568 271.878 265.106 276.185 267.478 279.126C269.85 282.067 274.157 282.529 277.098 280.157C280.04 277.785 280.501 273.478 278.129 270.537Z" fill="white" fill-opacity="0.07"/>
<path fill-rule="evenodd" clip-rule="evenodd" d="M327.874 189.948C326.412 190.361 325.35 191.69 324.961 193.159C324.799 193.768 324.569 194.37 324.268 194.954C322.032 199.283 316.709 200.98 312.38 198.743C308.051 196.507 306.354 191.185 308.59 186.856C310.827 182.527 316.149 180.83 320.478 183.066C321.012 183.342 321.505 183.664 321.956 184.026C323.23 185.047 324.952 185.602 326.522 185.158C329.005 184.458 331.228 181.541 330.997 178.971C330.622 174.797 331.39 170.47 333.456 166.47C336.559 160.462 341.96 156.413 348.029 154.843C349.878 154.365 351.137 152.336 350.974 150.433C350.954 150.197 350.94 149.964 350.931 149.734C350.84 147.4 349.33 144.657 347.603 143.084C343.981 139.787 343.719 134.179 347.016 130.557C350.313 126.936 355.921 126.673 359.543 129.97C363.164 133.268 363.427 138.876 360.13 142.498C359.798 142.862 359.442 143.193 359.067 143.489C357.281 144.903 355.739 147.739 355.933 150.009C356.119 152.185 357.666 154.345 359.773 154.925C361.281 155.34 362.77 155.917 364.216 156.664C375.418 162.45 379.808 176.222 374.022 187.424C372.87 189.654 371.401 191.615 369.699 193.279C368.343 194.605 368.184 196.943 369.146 198.578C369.829 199.739 371.227 200.363 372.573 200.326C373.378 200.303 374.199 200.406 375.013 200.646C379.17 201.873 381.544 206.238 380.317 210.394C379.09 214.551 374.725 216.926 370.568 215.698C366.412 214.471 364.037 210.106 365.264 205.95C365.411 205.455 365.601 204.985 365.831 204.543C366.479 203.298 366.58 201.717 365.868 200.507C364.928 198.911 362.825 197.972 361.071 198.567C355.405 200.487 348.997 200.192 343.262 197.23C340.75 195.933 338.581 194.234 336.792 192.252C334.774 190.016 330.773 189.13 327.874 189.948ZM361.342 180.873C363.512 176.672 361.865 171.508 357.665 169.338C353.464 167.168 348.299 168.814 346.13 173.015C343.96 177.216 345.606 182.38 349.807 184.55C354.008 186.72 359.172 185.074 361.342 180.873Z" fill="white" fill-opacity="0.07"/>
<path fill-rule="evenodd" clip-rule="evenodd" d="M302.62 3.90965C301.72 2.51076 299.989 1.82476 298.326 1.88724C297.636 1.91319 296.932 1.86504 296.225 1.73626C290.976 0.781099 287.496 -4.24802 288.451 -9.4966C289.406 -14.7452 294.435 -18.2257 299.684 -17.2705C304.932 -16.3154 308.413 -11.2862 307.457 -6.03767C307.34 -5.39094 307.16 -4.77105 306.926 -4.183C306.265 -2.52286 306.235 -0.542034 307.202 0.960621C308.731 3.33624 312.498 4.73005 315.115 3.66522C319.365 1.9357 324.142 1.35508 328.99 2.23748C336.275 3.56309 342.243 7.92119 345.83 13.7729C346.922 15.5552 349.448 16.2233 351.388 15.4437C351.628 15.3472 351.868 15.2574 352.105 15.1746C354.52 14.3318 356.909 11.8731 358.002 9.56065C360.295 4.71347 366.083 2.64266 370.93 4.93537C375.777 7.22808 377.848 13.0161 375.556 17.8633C373.263 22.7105 367.475 24.7813 362.628 22.4886C362.139 22.2576 361.679 21.9913 361.249 21.694C359.197 20.276 355.735 19.5696 353.42 20.4998C351.202 21.3915 349.436 23.702 349.504 26.092C349.553 27.8053 349.425 29.5496 349.106 31.3032C346.634 44.8843 333.621 53.8903 320.04 51.4188C317.335 50.9265 314.812 50.0162 312.525 48.7664C310.702 47.7709 308.203 48.3538 306.799 49.8841C305.803 50.971 305.597 52.6338 306.067 54.0317C306.348 54.8671 306.504 55.7602 306.513 56.6892C306.559 61.4341 302.749 65.3178 298.004 65.3636C293.26 65.4095 289.376 61.6001 289.33 56.8552C289.284 52.1102 293.094 48.2265 297.839 48.1807C298.404 48.1752 298.956 48.2245 299.492 48.3234C301.004 48.6027 302.691 48.202 303.73 47.0691C305.101 45.5745 305.41 43.0716 304.226 41.4252C300.402 36.1085 298.659 29.3052 299.925 22.353C300.479 19.3083 301.563 16.4934 303.064 13.9863C304.759 11.1567 304.405 6.6832 302.62 3.90965ZM322.841 36.0458C327.933 36.9726 332.813 33.5954 333.74 28.5025C334.667 23.4096 331.29 18.5296 326.197 17.6028C321.104 16.676 316.224 20.0532 315.297 25.1461C314.37 30.239 317.748 35.119 322.841 36.0458Z" fill="white" fill-opacity="0.07"/>
<circle cx="380.085" cy="288.128" r="4.89334" transform="rotate(-180 380.085 288.128)" fill="white" fill-opacity="0.07"/>
<circle cx="399.764" cy="98.7275" r="6.81942" transform="rotate(-151.714 399.764 98.7275)" fill="white" fill-opacity="0.07"/>
<circle cx="297.687" cy="111.422" r="5.32931" transform="rotate(-151.714 297.687 111.422)" fill="white" fill-opacity="0.07"/>
<circle cx="351.32" cy="361.678" r="10.6362" transform="rotate(-140.401 351.32 361.678)" fill="white" fill-opacity="0.07"/>
<path fill-rule="evenodd" clip-rule="evenodd" d="M192.747 372.792C191.308 373.131 189.624 372.688 188.438 371.805C188.224 371.646 187.999 371.498 187.762 371.363C184.556 369.525 180.467 370.634 178.63 373.84C176.792 377.046 177.901 381.134 181.107 382.972C184.313 384.81 188.401 383.701 190.239 380.495C190.393 380.227 190.526 379.952 190.639 379.674C191.163 378.382 192.363 377.242 193.72 376.923C195.269 376.558 198.36 377.345 199.2 378.697C199.642 379.408 200.142 380.095 200.7 380.751C205.619 386.532 213.584 388.191 220.221 385.376C222.073 384.59 224.37 385.086 225.586 386.689C227.771 389.571 228.149 394.197 226.716 397.517C223.935 403.956 224.837 411.695 229.69 417.398C236.498 425.399 248.502 426.365 256.503 419.558C260.964 415.761 263.238 410.348 263.196 404.915C263.188 403.819 264.026 402.862 265.101 402.646C266.941 402.278 269.405 403.279 270.727 404.611C271.004 404.891 271.308 405.151 271.637 405.39C274.907 407.755 279.474 407.023 281.84 403.753C284.205 400.484 283.472 395.917 280.203 393.551C276.934 391.186 272.366 391.918 270.001 395.188C268.873 396.747 266.767 398.236 264.864 398.525C264.677 398.554 264.487 398.587 264.295 398.626C263.18 398.849 261.99 398.293 261.522 397.256C260.803 395.663 259.851 394.143 258.662 392.745C253.847 387.086 246.431 384.946 239.672 386.588C236.349 387.395 232.077 386.059 230.011 383.334C228.506 381.348 228.311 378.564 229.264 376.261C231.617 370.572 230.777 363.798 226.513 358.787C225.668 357.794 224.733 356.923 223.731 356.175C223.075 355.685 222.852 354.782 223.097 354C223.435 352.922 224.677 351.91 225.764 351.597C225.992 351.531 226.217 351.446 226.439 351.341C228.634 350.299 229.569 347.674 228.527 345.479C227.484 343.283 224.86 342.348 222.664 343.39C220.468 344.433 219.534 347.058 220.576 349.253C221.073 350.3 221.25 351.843 220.852 352.932C220.813 353.04 220.776 353.15 220.74 353.262C220.582 353.767 220.023 354.072 219.527 353.887C213.961 351.818 207.468 352.74 202.624 356.863C198.958 359.982 196.95 364.327 196.689 368.78C196.597 370.342 194.27 372.433 192.747 372.792ZM217.725 374.606C220.398 372.332 220.721 368.321 218.446 365.648C216.172 362.975 212.161 362.652 209.488 364.926C206.815 367.201 206.492 371.212 208.767 373.885C211.041 376.558 215.052 376.881 217.725 374.606ZM248.797 410.501C251.797 407.948 252.16 403.447 249.607 400.447C247.054 397.446 242.553 397.084 239.552 399.637C236.552 402.19 236.19 406.691 238.743 409.691C241.296 412.692 245.797 413.054 248.797 410.501Z" fill="white" fill-opacity="0.07"/>
<path fill-rule="evenodd" clip-rule="evenodd" d="M187.609 171.7C187.409 171.861 187.202 172.008 186.99 172.141C185.815 172.875 184.855 174.196 184.661 175.568C184.469 176.93 185.347 178.65 186.679 178.994C190.341 179.941 193.741 182.031 196.298 185.202C202.623 193.045 201.392 204.531 193.549 210.856C192.71 211.532 192.55 213.533 193.038 214.495C193.263 214.936 193.471 215.431 193.652 215.962C193.998 216.982 194.991 217.697 196.051 217.886C196.683 218 197.309 218.213 197.907 218.533C200.96 220.167 202.111 223.967 200.476 227.021C198.842 230.075 195.041 231.225 191.988 229.591C188.934 227.956 187.784 224.156 189.418 221.102C189.613 220.738 189.839 220.401 190.09 220.092C190.799 219.223 191.134 218.002 190.774 216.94C190.319 215.6 187.923 214.006 186.551 214.351C179.864 216.029 172.507 213.826 167.895 208.107C161.57 200.264 162.801 188.778 170.644 182.453C172.764 180.744 175.149 179.586 177.627 178.962C179.239 178.556 180.49 176.657 180.723 175.012C180.906 173.717 180.319 172.28 179.369 171.382C179.165 171.189 178.971 170.98 178.79 170.755C176.616 168.059 177.039 164.111 179.735 161.937C182.431 159.763 186.379 160.186 188.553 162.882C190.728 165.578 190.305 169.526 187.609 171.7ZM176.776 200.948C179.147 203.889 183.455 204.351 186.396 201.979C189.337 199.607 189.798 195.3 187.427 192.359C185.055 189.417 180.748 188.956 177.806 191.328C174.865 193.7 174.404 198.007 176.776 200.948Z" fill="white" fill-opacity="0.07"/>
<path fill-rule="evenodd" clip-rule="evenodd" d="M81.1258 231.015C82.5881 230.602 83.6497 229.273 84.0391 227.804C84.2008 227.195 84.4308 226.593 84.7323 226.01C86.9684 221.68 92.2906 219.984 96.6198 222.22C100.949 224.456 102.646 229.778 100.41 234.107C98.1734 238.437 92.8512 240.133 88.522 237.897C87.9884 237.621 87.4948 237.299 87.0436 236.937C85.7704 235.916 84.0483 235.361 82.4777 235.805C79.9945 236.506 77.7718 239.423 78.0029 241.992C78.3784 246.167 77.6098 250.494 75.5439 254.493C72.4405 260.501 67.0399 264.55 60.9707 266.12C59.1217 266.598 57.8629 268.627 58.0258 270.53C58.046 270.766 58.0605 270.999 58.0694 271.229C58.1604 273.563 59.6698 276.306 61.3974 277.879C65.0187 281.176 65.2815 286.785 61.9843 290.406C58.6871 294.027 53.0785 294.29 49.4572 290.993C45.8359 287.696 45.5731 282.087 48.8703 278.466C49.2024 278.101 49.558 277.77 49.9327 277.474C51.7193 276.06 53.2612 273.225 53.0669 270.955C52.8805 268.778 51.3337 266.618 49.2273 266.038C47.7186 265.623 46.2299 265.046 44.7841 264.299C33.582 258.513 29.1916 244.741 34.9778 233.539C36.13 231.309 37.5988 229.348 39.3009 227.684C40.6571 226.359 40.8155 224.02 39.8538 222.385C39.1707 221.224 37.7734 220.601 36.4269 220.638C35.6224 220.66 34.8007 220.558 33.987 220.317C29.8304 219.09 27.4557 214.725 28.683 210.569C29.9103 206.412 34.2749 204.037 38.4316 205.265C42.5882 206.492 44.9629 210.857 43.7355 215.013C43.5893 215.509 43.3986 215.978 43.1689 216.42C42.5212 217.666 42.4204 219.246 43.1323 220.456C44.0715 222.052 46.175 222.991 47.9291 222.397C53.5946 220.476 60.0029 220.771 65.7377 223.733C68.2495 225.031 70.4189 226.73 72.2079 228.711C74.2265 230.947 78.2268 231.833 81.1258 231.015ZM47.6581 240.09C45.4883 244.291 47.1347 249.456 51.3354 251.625C55.5362 253.795 60.7006 252.149 62.8704 247.948C65.0402 243.747 63.3938 238.583 59.193 236.413C54.9923 234.243 49.8279 235.89 47.6581 240.09Z" fill="white" fill-opacity="0.07"/>
<path fill-rule="evenodd" clip-rule="evenodd" d="M114.38 422.25C115.28 423.649 117.011 424.335 118.674 424.273C119.364 424.247 120.068 424.295 120.775 424.424C126.024 425.379 129.504 430.408 128.549 435.656C127.594 440.905 122.565 444.385 117.316 443.43C112.068 442.475 108.587 437.446 109.543 432.197C109.66 431.551 109.84 430.931 110.074 430.343C110.735 428.683 110.765 426.702 109.798 425.199C108.269 422.824 104.502 421.43 101.885 422.495C97.6348 424.224 92.8584 424.805 88.0096 423.922C80.7254 422.597 74.7574 418.239 71.1704 412.387C70.0779 410.605 67.5516 409.936 65.6119 410.716C65.3717 410.813 65.1324 410.902 64.8949 410.985C62.4796 411.828 60.0914 414.287 58.9976 416.599C56.7049 421.446 50.9169 423.517 46.0697 421.224C41.2225 418.932 39.1517 413.144 41.4444 408.297C43.7371 403.449 49.5251 401.379 54.3723 403.671C54.8605 403.902 55.3205 404.169 55.7508 404.466C57.8029 405.884 61.2653 406.59 63.5797 405.66C65.7983 404.768 67.5639 402.458 67.4959 400.068C67.4472 398.354 67.5749 396.61 67.8941 394.857C70.3656 381.276 83.3788 372.269 96.9598 374.741C99.6646 375.233 102.188 376.144 104.475 377.393C106.298 378.389 108.797 377.806 110.201 376.276C111.197 375.189 111.403 373.526 110.933 372.128C110.652 371.293 110.496 370.4 110.487 369.471C110.441 364.726 114.251 360.842 118.996 360.796C123.74 360.75 127.624 364.56 127.67 369.305C127.716 374.05 123.906 377.933 119.161 377.979C118.596 377.985 118.044 377.935 117.508 377.836C115.996 377.557 114.309 377.958 113.27 379.091C111.899 380.585 111.59 383.088 112.774 384.735C116.598 390.051 118.341 396.855 117.075 403.807C116.521 406.852 115.437 409.666 113.936 412.173C112.241 415.003 112.595 419.477 114.38 422.25ZM94.1594 390.114C89.0666 389.187 84.1866 392.564 83.2598 397.657C82.333 402.75 85.7102 407.63 90.8031 408.557C95.896 409.484 100.776 406.107 101.703 401.014C102.63 395.921 99.2523 391.041 94.1594 390.114Z" fill="white" fill-opacity="0.07"/>
<circle cx="36.9151" cy="138.032" r="4.89334" fill="white" fill-opacity="0.07"/>
<circle cx="17.2367" cy="327.432" r="6.81942" transform="rotate(28.2862 17.2367 327.432)" fill="white" fill-opacity="0.07"/>
<circle cx="119.313" cy="314.738" r="5.32931" transform="rotate(28.2862 119.313 314.738)" fill="white" fill-opacity="0.07"/>
<circle cx="105.254" cy="103.254" r="7.28265" transform="rotate(39.5994 105.254 103.254)" fill="white" fill-opacity="0.07"/>
<path fill-rule="evenodd" clip-rule="evenodd" d="M219.479 65.3391C221.057 64.9675 222.904 65.4527 224.204 66.4208C224.438 66.5952 224.685 66.7574 224.945 66.9063C228.459 68.9211 232.942 67.7053 234.957 64.1906C236.972 60.6759 235.756 56.1933 232.241 54.1784C228.726 52.1636 224.244 53.3795 222.229 56.8941C222.06 57.1881 221.914 57.4889 221.791 57.7945C221.216 59.2109 219.9 60.4602 218.412 60.8107C216.714 61.2107 213.326 60.3471 212.405 58.8651C211.921 58.086 211.373 57.3331 210.76 56.6133C205.367 50.2756 196.635 48.4567 189.359 51.5428C187.328 52.4042 184.81 51.8607 183.477 50.1029C181.082 46.9439 180.667 41.8723 182.238 38.2327C185.287 31.1726 184.298 22.6887 178.977 16.4359C171.514 7.66484 158.353 6.60493 149.582 14.0685C144.691 18.2309 142.197 24.1652 142.243 30.1219C142.253 31.3237 141.334 32.3728 140.156 32.6088C138.138 33.0128 135.437 31.9157 133.988 30.4549C133.684 30.1484 133.351 29.8625 132.989 29.6011C129.405 27.0078 124.398 27.8111 121.804 31.3952C119.211 34.9793 120.015 39.987 123.599 42.5802C127.183 45.1735 132.19 44.3702 134.784 40.7861C136.021 39.0765 138.329 37.4446 140.415 37.1269C140.621 37.0956 140.829 37.059 141.039 37.017C142.262 36.7721 143.566 37.3818 144.079 38.5189C144.867 40.2653 145.911 41.9315 147.215 43.4637C152.494 49.6678 160.624 52.0138 168.034 50.2141C171.678 49.3293 176.36 50.7942 178.625 53.7816C180.276 55.9589 180.489 59.0111 179.445 61.536C176.865 67.7732 177.786 75.2 182.461 80.6938C183.387 81.7821 184.412 82.7373 185.511 83.5572C186.23 84.0942 186.474 85.0839 186.205 85.9408C185.835 87.1236 184.473 88.233 183.282 88.5759C183.032 88.6478 182.785 88.741 182.542 88.8562C180.135 89.9989 179.11 92.8766 180.253 95.2837C181.396 97.6908 184.273 98.7158 186.68 97.573C189.088 96.4303 190.112 93.5526 188.97 91.1455C188.425 89.9975 188.231 88.3056 188.667 87.1119C188.71 86.9941 188.751 86.8735 188.79 86.7503C188.963 86.1963 189.575 85.8629 190.12 86.0652C196.222 88.3339 203.34 87.3223 208.651 82.803C212.67 79.3829 214.872 74.62 215.158 69.7371C215.258 68.0256 217.81 65.7322 219.479 65.3391ZM192.096 63.3503C189.165 65.8439 188.811 70.241 191.305 73.1715C193.798 76.1019 198.195 76.456 201.126 73.9624C204.056 71.4688 204.41 67.0717 201.917 64.1413C199.423 61.2108 195.026 60.8567 192.096 63.3503ZM158.03 23.9974C154.741 26.7962 154.343 31.7315 157.142 35.0206C159.941 38.3097 164.876 38.7072 168.165 35.9084C171.454 33.1095 171.852 28.1743 169.053 24.8851C166.254 21.596 161.319 21.1986 158.03 23.9974Z" fill="white" fill-opacity="0.07"/>
</svg>
