<svg width="417" height="425" viewBox="0 0 417 425" fill="none" xmlns="http://www.w3.org/2000/svg">
<path fill-rule="evenodd" clip-rule="evenodd" d="M141.704 105.376C141.504 105.537 141.298 105.683 141.085 105.816C139.91 106.551 138.95 107.871 138.756 109.243C138.564 110.605 139.442 112.325 140.774 112.67C144.436 113.617 147.836 115.707 150.393 118.877C156.718 126.72 155.487 138.206 147.644 144.531C146.805 145.208 146.645 147.209 147.133 148.17C147.358 148.612 147.567 149.107 147.747 149.638C148.093 150.657 149.086 151.372 150.146 151.562C150.779 151.675 151.405 151.888 152.002 152.208C155.055 153.842 156.206 157.643 154.571 160.696C152.937 163.75 149.136 164.9 146.083 163.266C143.029 161.632 141.879 157.831 143.513 154.777C143.708 154.413 143.934 154.076 144.185 153.768C144.894 152.898 145.23 151.678 144.869 150.615C144.414 149.276 142.018 147.681 140.646 148.026C133.959 149.705 126.603 147.501 121.99 141.782C115.665 133.939 116.896 122.453 124.739 116.128C126.859 114.419 129.245 113.262 131.723 112.637C133.334 112.231 134.586 110.333 134.818 108.687C135.001 107.393 134.414 105.955 133.464 105.057C133.26 104.864 133.066 104.655 132.885 104.431C130.711 101.735 131.134 97.7864 133.83 95.6122C136.526 93.438 140.474 93.861 142.649 96.5571C144.823 99.2532 144.4 103.201 141.704 105.376ZM130.871 134.623C133.243 137.564 137.55 138.026 140.491 135.654C143.432 133.282 143.894 128.975 141.522 126.034C139.15 123.093 134.843 122.631 131.902 125.003C128.96 127.375 128.499 131.682 130.871 134.623Z" fill="white" fill-opacity="0.07"/>
<path fill-rule="evenodd" clip-rule="evenodd" d="M81.1258 215.211C82.5881 214.799 83.6497 213.47 84.0391 212.001C84.2008 211.392 84.4308 210.79 84.7323 210.206C86.9684 205.877 92.2906 204.18 96.6198 206.416C100.949 208.653 102.646 213.975 100.41 218.304C98.1734 222.633 92.8512 224.33 88.522 222.094C87.9884 221.818 87.4948 221.496 87.0436 221.134C85.7704 220.113 84.0483 219.558 82.4777 220.001C79.9945 220.702 77.7718 223.619 78.0029 226.189C78.3784 230.363 77.6098 234.69 75.5439 238.69C72.4405 244.698 67.0399 248.747 60.9707 250.317C59.1217 250.795 57.8629 252.824 58.0258 254.727C58.046 254.963 58.0605 255.196 58.0694 255.425C58.1604 257.76 59.6698 260.503 61.3974 262.076C65.0187 265.373 65.2815 270.981 61.9843 274.603C58.6871 278.224 53.0785 278.487 49.4572 275.189C45.8359 271.892 45.5731 266.284 48.8703 262.662C49.2024 262.298 49.558 261.967 49.9327 261.67C51.7193 260.257 53.2612 257.421 53.0669 255.151C52.8805 252.975 51.3337 250.814 49.2273 250.235C47.7186 249.82 46.2299 249.243 44.7841 248.496C33.582 242.71 29.1916 228.938 34.9778 217.736C36.13 215.506 37.5988 213.545 39.3009 211.881C40.6571 210.555 40.8155 208.216 39.8538 206.582C39.1707 205.421 37.7734 204.797 36.4269 204.834C35.6224 204.857 34.8007 204.754 33.987 204.514C29.8304 203.287 27.4557 198.922 28.683 194.766C29.9103 190.609 34.2749 188.234 38.4316 189.462C42.5882 190.689 44.9629 195.053 43.7355 199.21C43.5893 199.705 43.3986 200.175 43.1689 200.617C42.5212 201.862 42.4204 203.443 43.1323 204.653C44.0715 206.249 46.175 207.188 47.9291 206.593C53.5946 204.673 60.0029 204.968 65.7377 207.93C68.2495 209.227 70.4189 210.926 72.2079 212.908C74.2265 215.144 78.2268 216.03 81.1258 215.211ZM47.6581 224.287C45.4883 228.488 47.1347 233.652 51.3355 235.822C55.5362 237.992 60.7006 236.345 62.8704 232.145C65.0402 227.944 63.3938 222.78 59.193 220.61C54.9923 218.44 49.8279 220.086 47.6581 224.287Z" fill="white" fill-opacity="0.07"/>
<path fill-rule="evenodd" clip-rule="evenodd" d="M106.38 401.25C107.28 402.649 109.011 403.335 110.674 403.273C111.364 403.247 112.068 403.295 112.775 403.424C118.024 404.379 121.504 409.408 120.549 414.656C119.594 419.905 114.565 423.386 109.316 422.43C104.068 421.475 100.587 416.446 101.543 411.198C101.66 410.551 101.84 409.931 102.074 409.343C102.735 407.683 102.765 405.702 101.798 404.199C100.269 401.824 96.5017 400.43 93.885 401.495C89.6348 403.224 84.8584 403.805 80.0096 402.922C72.7254 401.597 66.7574 397.239 63.1704 391.387C62.0779 389.605 59.5516 388.937 57.6119 389.716C57.3717 389.813 57.1324 389.902 56.8949 389.985C54.4796 390.828 52.0914 393.287 50.9976 395.599C48.7049 400.446 42.9169 402.517 38.0697 400.225C33.2225 397.932 31.1517 392.144 33.4444 387.297C35.7371 382.449 41.5251 380.379 46.3723 382.671C46.8605 382.902 47.3205 383.169 47.7508 383.466C49.8029 384.884 53.2653 385.59 55.5797 384.66C57.7983 383.768 59.5639 381.458 59.4959 379.068C59.4472 377.355 59.5749 375.61 59.8941 373.857C62.3656 360.276 75.3788 351.27 88.9598 353.741C91.6646 354.233 94.188 355.144 96.4754 356.393C98.2976 357.389 100.797 356.806 102.201 355.276C103.197 354.189 103.403 352.526 102.933 351.128C102.652 350.293 102.496 349.4 102.487 348.471C102.441 343.726 106.251 339.842 110.996 339.796C115.74 339.75 119.624 343.56 119.67 348.305C119.716 353.05 115.906 356.933 111.161 356.979C110.596 356.985 110.044 356.935 109.508 356.836C107.996 356.557 106.309 356.958 105.27 358.091C103.899 359.585 103.59 362.088 104.774 363.735C108.598 369.051 110.341 375.855 109.075 382.807C108.521 385.852 107.437 388.666 105.936 391.174C104.241 394.003 104.595 398.477 106.38 401.25ZM86.1594 369.114C81.0666 368.187 76.1866 371.565 75.2598 376.657C74.333 381.75 77.7102 386.63 82.8031 387.557C87.896 388.484 92.7759 385.107 93.7028 380.014C94.6296 374.921 91.2523 370.041 86.1594 369.114Z" fill="white" fill-opacity="0.07"/>
<circle cx="28.9151" cy="117.032" r="4.89334" fill="white" fill-opacity="0.07"/>
<circle cx="9.2367" cy="306.432" r="6.81942" transform="rotate(28.2862 9.2367 306.432)" fill="white" fill-opacity="0.07"/>
<circle cx="111.313" cy="293.738" r="5.32931" transform="rotate(28.2862 111.313 293.738)" fill="white" fill-opacity="0.07"/>
<circle cx="85.5919" cy="415.706" r="2.76081" transform="rotate(28.2862 85.5919 415.706)" fill="white" fill-opacity="0.07"/>
<circle cx="57.6801" cy="43.4819" r="10.6362" transform="rotate(39.5994 57.6801 43.4819)" fill="white" fill-opacity="0.07"/>
<path fill-rule="evenodd" clip-rule="evenodd" d="M216.253 32.3678C217.692 32.0289 219.376 32.4715 220.562 33.3545C220.776 33.5135 221.001 33.6616 221.238 33.7973C224.444 35.6351 228.533 34.5261 230.37 31.3202C232.208 28.1144 231.099 24.0256 227.893 22.1878C224.687 20.35 220.599 21.459 218.761 24.6649C218.607 24.9331 218.474 25.2074 218.361 25.4861C217.837 26.7781 216.637 27.9177 215.28 28.2373C213.731 28.6022 210.64 27.8145 209.8 26.4627C209.358 25.7521 208.858 25.0653 208.3 24.4088C203.381 18.6279 195.416 16.9689 188.779 19.7838C186.927 20.5695 184.63 20.0738 183.414 18.4704C181.229 15.589 180.851 10.963 182.284 7.64326C185.065 1.20345 184.163 -6.53494 179.31 -12.2384C172.502 -20.2387 160.498 -21.2055 152.497 -14.3978C148.036 -10.6011 145.761 -5.18819 145.804 0.245098C145.812 1.34126 144.974 2.29818 143.899 2.51343C142.059 2.88199 139.595 1.88123 138.273 0.548807C137.996 0.26922 137.692 0.00842275 137.363 -0.230001C134.093 -2.59536 129.526 -1.86267 127.16 1.4065C124.795 4.67568 125.528 9.24338 128.797 11.6087C132.066 13.9741 136.634 13.2414 138.999 9.97223C140.127 8.41288 142.233 6.92436 144.136 6.6346C144.323 6.60605 144.513 6.57267 144.705 6.53434C145.82 6.31091 147.01 6.86704 147.478 7.90423C148.197 9.49718 149.149 11.017 150.338 12.4146C155.153 18.0736 162.569 20.2135 169.328 18.5719C172.651 17.7648 176.923 19.1009 178.989 21.8259C180.494 23.8119 180.689 26.5959 179.736 28.899C177.383 34.5881 178.223 41.3623 182.487 46.3734C183.332 47.3661 184.267 48.2373 185.269 48.9852C185.925 49.475 186.148 50.3778 185.903 51.1594C185.565 52.2383 184.323 53.2502 183.236 53.5629C183.008 53.6285 182.783 53.7135 182.561 53.8186C180.366 54.8609 179.431 57.4857 180.473 59.6813C181.516 61.8769 184.14 62.8118 186.336 61.7695C188.532 60.7271 189.466 58.1023 188.424 55.9067C187.927 54.8596 187.75 53.3164 188.148 52.2276C188.187 52.1201 188.224 52.0101 188.26 51.8977C188.418 51.3924 188.977 51.0883 189.473 51.2728C195.039 53.3422 201.532 52.4195 206.376 48.2973C210.042 45.1777 212.05 40.8333 212.311 36.3794C212.403 34.8182 214.73 32.7264 216.253 32.3678ZM191.275 30.5538C188.602 32.8284 188.279 36.8391 190.554 39.512C192.828 42.185 196.839 42.508 199.512 40.2335C202.185 37.959 202.508 33.9483 200.233 31.2753C197.959 28.6023 193.948 28.2793 191.275 30.5538ZM160.203 -5.3413C157.203 -2.7884 156.84 1.71322 159.393 4.71334C161.946 7.71347 166.447 8.07601 169.448 5.52311C172.448 2.97021 172.81 -1.5314 170.257 -4.53153C167.704 -7.53165 163.203 -7.8942 160.203 -5.3413Z" fill="white" fill-opacity="0.07"/>
<path fill-rule="evenodd" clip-rule="evenodd" d="M236.298 253.176C236.497 253.015 236.704 252.868 236.916 252.736C238.091 252.001 239.051 250.68 239.245 249.308C239.437 247.946 238.559 246.226 237.228 245.882C233.566 244.935 230.165 242.845 227.609 239.674C221.284 231.831 222.514 220.346 230.357 214.021C231.197 213.344 231.356 211.343 230.868 210.381C230.644 209.94 230.435 209.445 230.254 208.914C229.908 207.894 228.915 207.179 227.855 206.99C227.223 206.877 226.597 206.663 226 206.344C222.946 204.709 221.796 200.909 223.43 197.855C225.065 194.801 228.865 193.651 231.919 195.286C234.972 196.92 236.123 200.721 234.488 203.774C234.293 204.138 234.068 204.475 233.816 204.784C233.107 205.653 232.772 206.874 233.133 207.936C233.588 209.276 235.983 210.87 237.356 210.526C244.043 208.847 251.399 211.05 256.011 216.769C262.336 224.613 261.105 236.098 253.262 242.423C251.143 244.132 248.757 245.29 246.279 245.914C244.667 246.32 243.416 248.219 243.183 249.864C243.001 251.159 243.587 252.596 244.537 253.494C244.741 253.687 244.935 253.896 245.116 254.121C247.29 256.817 246.867 260.765 244.171 262.939C241.475 265.114 237.527 264.691 235.353 261.994C233.179 259.298 233.602 255.35 236.298 253.176ZM247.131 223.928C244.759 220.987 240.452 220.526 237.511 222.897C234.569 225.269 234.108 229.576 236.48 232.518C238.852 235.459 243.159 235.92 246.1 233.548C249.041 231.177 249.503 226.869 247.131 223.928Z" fill="white" fill-opacity="0.07"/>
<path fill-rule="evenodd" clip-rule="evenodd" d="M335.333 191.043C333.87 191.456 332.809 192.785 332.419 194.253C332.258 194.863 332.028 195.465 331.726 196.048C329.49 200.378 324.168 202.074 319.839 199.838C315.509 197.602 313.813 192.28 316.049 187.951C318.285 183.621 323.607 181.925 327.936 184.161C328.47 184.436 328.964 184.759 329.415 185.121C330.688 186.142 332.41 186.696 333.981 186.253C336.464 185.552 338.687 182.635 338.456 180.066C338.08 175.891 338.849 171.564 340.915 167.565C344.018 161.557 349.419 157.508 355.488 155.938C357.337 155.46 358.596 153.431 358.433 151.528C358.412 151.292 358.398 151.059 358.389 150.829C358.298 148.495 356.789 145.752 355.061 144.179C351.44 140.882 351.177 135.273 354.474 131.652C357.771 128.031 363.38 127.768 367.001 131.065C370.623 134.362 370.885 139.971 367.588 143.592C367.256 143.957 366.9 144.288 366.526 144.584C364.739 145.998 363.197 148.833 363.392 151.103C363.578 153.28 365.125 155.44 367.231 156.02C368.74 156.435 370.229 157.012 371.674 157.759C382.876 163.545 387.267 177.316 381.481 188.519C380.329 190.749 378.86 192.71 377.158 194.374C375.801 195.699 375.643 198.038 376.605 199.673C377.288 200.834 378.685 201.457 380.032 201.42C380.836 201.398 381.658 201.5 382.471 201.741C386.628 202.968 389.003 207.332 387.775 211.489C386.548 215.646 382.184 218.02 378.027 216.793C373.87 215.566 371.496 211.201 372.723 207.045C372.869 206.549 373.06 206.079 373.29 205.638C373.937 204.392 374.038 202.812 373.326 201.602C372.387 200.005 370.284 199.067 368.529 199.661C362.864 201.582 356.456 201.287 350.721 198.325C348.209 197.027 346.04 195.328 344.251 193.347C342.232 191.111 338.232 190.225 335.333 191.043ZM368.8 181.968C370.97 177.767 369.324 172.602 365.123 170.433C360.922 168.263 355.758 169.909 353.588 174.11C351.418 178.311 353.065 183.475 357.265 185.645C361.466 187.815 366.631 186.168 368.8 181.968Z" fill="white" fill-opacity="0.07"/>
<path fill-rule="evenodd" clip-rule="evenodd" d="M305.62 -17.0903C304.72 -18.4892 302.989 -19.1752 301.326 -19.1128C300.636 -19.0868 299.932 -19.135 299.225 -19.2637C293.976 -20.2189 290.496 -25.248 291.451 -30.4966C292.406 -35.7452 297.435 -39.2257 302.684 -38.2705C307.932 -37.3154 311.413 -32.2862 310.457 -27.0377C310.34 -26.3909 310.16 -25.771 309.926 -25.183C309.265 -23.5229 309.235 -21.542 310.202 -20.0394C311.731 -17.6638 315.498 -16.2699 318.115 -17.3348C322.365 -19.0643 327.142 -19.6449 331.99 -18.7625C339.275 -17.4369 345.243 -13.0788 348.83 -7.22706C349.922 -5.44477 352.448 -4.77665 354.388 -5.55627C354.628 -5.65285 354.868 -5.74257 355.105 -5.82544C357.52 -6.66825 359.909 -9.12687 361.002 -11.4393C363.295 -16.2865 369.083 -18.3573 373.93 -16.0646C378.777 -13.7719 380.848 -7.9839 378.556 -3.13673C376.263 1.71045 370.475 3.78126 365.628 1.48855C365.139 1.25764 364.679 0.991271 364.249 0.693978C362.197 -0.724026 358.735 -1.43043 356.42 -0.50018C354.202 0.391529 352.436 2.70198 352.504 5.09206C352.553 6.80533 352.425 8.54955 352.106 10.3032C349.634 23.8843 336.621 32.8903 323.04 30.4188C320.335 29.9265 317.812 29.0162 315.525 27.7664C313.702 26.7709 311.203 27.3538 309.799 28.8841C308.803 29.971 308.597 31.6338 309.067 33.0317C309.348 33.8671 309.504 34.7602 309.513 35.6892C309.559 40.4341 305.749 44.3178 301.004 44.3636C296.26 44.4095 292.376 40.6001 292.33 35.8552C292.284 31.1102 296.094 27.2265 300.839 27.1807C301.404 27.1752 301.956 27.2245 302.492 27.3234C304.004 27.6027 305.691 27.202 306.73 26.0691C308.101 24.5745 308.41 22.0716 307.226 20.4252C303.402 15.1085 301.659 8.30518 302.925 1.35302C303.479 -1.69175 304.563 -4.50657 306.064 -7.01365C307.759 -9.84333 307.405 -14.3168 305.62 -17.0903ZM325.841 15.0458C330.933 15.9726 335.813 12.5954 336.74 7.50246C337.667 2.40957 334.29 -2.47037 329.197 -3.3972C324.104 -4.32402 319.224 -0.946764 318.297 4.14613C317.37 9.23902 320.748 14.119 325.841 15.0458Z" fill="white" fill-opacity="0.07"/>
<circle cx="383.085" cy="267.128" r="4.89334" transform="rotate(-180 383.085 267.128)" fill="white" fill-opacity="0.07"/>
<circle cx="402.763" cy="77.7275" r="6.81942" transform="rotate(-151.714 402.763 77.7275)" fill="white" fill-opacity="0.07"/>
<circle cx="300.687" cy="90.4222" r="5.32931" transform="rotate(-151.714 300.687 90.4222)" fill="white" fill-opacity="0.07"/>
<circle cx="354.32" cy="340.678" r="10.6362" transform="rotate(-140.401 354.32 340.678)" fill="white" fill-opacity="0.07"/>
<path fill-rule="evenodd" clip-rule="evenodd" d="M195.747 351.792C194.308 352.131 192.624 351.688 191.438 350.805C191.224 350.646 190.999 350.498 190.762 350.363C187.556 348.525 183.467 349.634 181.63 352.84C179.792 356.046 180.901 360.134 184.107 361.972C187.313 363.81 191.401 362.701 193.239 359.495C193.393 359.227 193.526 358.952 193.639 358.674C194.163 357.382 195.363 356.242 196.72 355.923C198.269 355.558 201.36 356.345 202.2 357.697C202.642 358.408 203.142 359.095 203.7 359.751C208.619 365.532 216.584 367.191 223.221 364.376C225.073 363.59 227.37 364.086 228.586 365.689C230.771 368.571 231.149 373.197 229.716 376.517C226.935 382.956 227.837 390.695 232.69 396.398C239.498 404.399 251.502 405.365 259.503 398.558C263.964 394.761 266.239 389.348 266.196 383.915C266.188 382.819 267.026 381.862 268.101 381.646C269.941 381.278 272.405 382.279 273.727 383.611C274.004 383.891 274.308 384.151 274.637 384.39C277.907 386.755 282.474 386.023 284.84 382.753C287.205 379.484 286.472 374.917 283.203 372.551C279.934 370.186 275.366 370.918 273.001 374.188C271.873 375.747 269.767 377.236 267.864 377.525C267.677 377.554 267.487 377.587 267.295 377.626C266.18 377.849 264.99 377.293 264.522 376.256C263.803 374.663 262.851 373.143 261.662 371.745C256.847 366.086 249.431 363.946 242.672 365.588C239.349 366.395 235.077 365.059 233.011 362.334C231.506 360.348 231.311 357.564 232.264 355.261C234.617 349.572 233.777 342.798 229.513 337.787C228.668 336.794 227.733 335.923 226.731 335.175C226.075 334.685 225.852 333.782 226.097 333C226.435 331.922 227.677 330.91 228.764 330.597C228.992 330.531 229.217 330.446 229.439 330.341C231.634 329.299 232.569 326.674 231.527 324.479C230.484 322.283 227.86 321.348 225.664 322.39C223.468 323.433 222.534 326.058 223.576 328.253C224.073 329.3 224.25 330.843 223.852 331.932C223.813 332.04 223.776 332.15 223.74 332.262C223.582 332.767 223.023 333.072 222.527 332.887C216.961 330.818 210.468 331.74 205.624 335.863C201.958 338.982 199.95 343.327 199.689 347.78C199.597 349.342 197.27 351.433 195.747 351.792ZM220.725 353.606C223.398 351.332 223.721 347.321 221.446 344.648C219.172 341.975 215.161 341.652 212.488 343.926C209.815 346.201 209.492 350.212 211.767 352.885C214.041 355.558 218.052 355.881 220.725 353.606ZM251.797 389.501C254.797 386.948 255.16 382.447 252.607 379.447C250.054 376.446 245.553 376.084 242.552 378.637C239.552 381.19 239.19 385.691 241.743 388.691C244.296 391.692 248.797 392.054 251.797 389.501Z" fill="white" fill-opacity="0.07"/>
</svg>
