<svg width="31" height="31" viewBox="0 0 31 31" fill="none" xmlns="http://www.w3.org/2000/svg">
<path fill-rule="evenodd" clip-rule="evenodd" d="M26.8528 14.8631C27.1638 3.32127 13.5486 -2.34598 5.18594 5.32554C2.5287 7.80604 0.952561 11.2313 0.797273 14.8631C0.670138 11.1237 2.02372 7.48519 4.56392 4.73808C11.7862 -3.03711 24.6066 -0.618163 28.9262 8.95396C29.7663 10.8152 30.2358 12.8223 30.3084 14.8631H26.8528ZM27.6481 22.362C28.8696 22.362 29.8597 21.3718 29.8597 20.1504C29.8597 18.9289 28.8696 17.9388 27.6481 17.9388C26.4267 17.9388 25.4365 18.9289 25.4365 20.1504C25.4365 21.3718 26.4267 22.362 27.6481 22.362ZM25.99 25.4718C25.99 26.5787 25.0926 27.4761 23.9857 27.4761C22.8788 27.4761 21.9814 26.5787 21.9814 25.4718C21.9814 24.3649 22.8788 23.4675 23.9857 23.4675C25.0926 23.4675 25.99 24.3649 25.99 25.4718ZM17.8692 30.5172C18.8616 30.5172 19.6661 29.7127 19.6661 28.7203C19.6661 27.7279 18.8616 26.9233 17.8692 26.9233C16.8768 26.9233 16.0723 27.7279 16.0723 28.7203C16.0723 29.7127 16.8768 30.5172 17.8692 30.5172ZM13.1702 28.7206C13.1702 29.6176 12.443 30.3447 11.546 30.3447C10.649 30.3447 9.92188 29.6176 9.92188 28.7206C9.92188 27.8236 10.649 27.0964 11.546 27.0964C12.443 27.0964 13.1702 27.8236 13.1702 28.7206ZM6.63654 27.8908C7.41902 27.8908 8.05335 27.2564 8.05335 26.4739C8.05335 25.6915 7.41902 25.0571 6.63654 25.0571C5.85405 25.0571 5.21973 25.6915 5.21973 26.4739C5.21973 27.2564 5.85405 27.8908 6.63654 27.8908ZM2.29175 22.1633C2.51857 21.9365 2.8262 21.8091 3.14697 21.8091C3.46775 21.8091 3.77538 21.9365 4.0022 22.1633C4.22902 22.3901 4.35645 22.6978 4.35645 23.0186C4.35645 23.3393 4.22902 23.647 4.0022 23.8738C3.77538 24.1006 3.46775 24.228 3.14697 24.228C2.8262 24.228 2.51857 24.1006 2.29175 23.8738C2.06493 23.647 1.9375 23.3393 1.9375 23.0186C1.9375 22.6978 2.06493 22.3901 2.29175 22.1633ZM1.10858 19.5283C1.66205 19.5283 2.11072 19.0796 2.11072 18.5262C2.11072 17.9727 1.66205 17.524 1.10858 17.524C0.555117 17.524 0.106445 17.9727 0.106445 18.5262C0.106445 19.0796 0.555117 19.5283 1.10858 19.5283ZM15.7604 7.84839V15.4162H20.5983V17.1441H14.8965H14.0326V16.2801V7.84839H15.7604Z" fill="url(#paint0_linear_135_40)"/>
<defs>
<linearGradient id="paint0_linear_135_40" x1="0.106445" y1="0.105469" x2="21.3585" y2="35.8399" gradientUnits="userSpaceOnUse">
<stop stop-color="#0065B3"/>
<stop offset="0.843592" stop-color="#014B84"/>
</linearGradient>
</defs>
</svg>
