<svg width="33" height="26" viewBox="0 0 33 26" fill="none" xmlns="http://www.w3.org/2000/svg">
<path d="M24.4686 0.657959H11.208C10.8035 0.657959 10.4756 1.01303 10.4756 1.45103V9.23564C10.4756 9.67364 10.8035 10.0287 11.208 10.0287H24.4686C24.8731 10.0287 25.2011 9.67364 25.2011 9.23564V1.45103C25.2011 1.01303 24.8731 0.657959 24.4686 0.657959Z" fill="url(#paint0_linear_135_32)"/>
<path d="M25.2011 1.99683H10.4756V4.67418H25.2011V1.99683Z" fill="#E6EEF5"/>
<path d="M1.10645 18.3079C1.10645 18.3079 7.31156 13.1037 10.7505 14.1955C13.4045 15.0689 18.3761 15.4328 20.432 15.542C20.8705 15.5551 21.2955 15.693 21.6543 15.9388C22.013 16.1846 22.2899 16.5275 22.4505 16.9249C22.4938 17.1287 22.5188 17.3357 22.5253 17.5436C22.5187 17.7395 22.4937 17.9344 22.4505 18.1259C22.294 18.5027 22.0252 18.8254 21.6789 19.0523C21.3325 19.2793 20.9243 19.4003 20.5068 19.3996H11.4981" stroke="url(#paint1_linear_135_32)" stroke-width="1.17226" stroke-miterlimit="10"/>
<path d="M5.12305 24.7542C5.12305 24.7542 8.03287 23.2494 9.45229 23.5993C10.8717 23.9493 17.0107 24.6492 18.4656 24.2993C19.9206 23.9493 30.7792 15.6201 31.6663 14.0803C31.8806 13.707 31.9484 13.269 31.8568 12.8496C31.7653 12.4303 31.5206 12.0587 31.1695 11.8055C30.7798 11.5153 30.3032 11.3613 29.815 11.3676C29.3267 11.374 28.8544 11.5403 28.4726 11.8405L22.0852 16.915" stroke="url(#paint2_linear_135_32)" stroke-width="1.17226" stroke-miterlimit="10"/>
<defs>
<linearGradient id="paint0_linear_135_32" x1="10.4756" y1="0.657959" x2="15.3843" y2="13.7183" gradientUnits="userSpaceOnUse">
<stop stop-color="#0065B3"/>
<stop offset="0.843592" stop-color="#014B84"/>
</linearGradient>
<linearGradient id="paint1_linear_135_32" x1="1.10645" y1="14.0449" x2="2.33724" y2="22.3805" gradientUnits="userSpaceOnUse">
<stop stop-color="#0065B3"/>
<stop offset="0.843592" stop-color="#014B84"/>
</linearGradient>
<linearGradient id="paint2_linear_135_32" x1="5.12305" y1="11.3674" x2="10.9068" y2="30.9527" gradientUnits="userSpaceOnUse">
<stop stop-color="#0065B3"/>
<stop offset="0.843592" stop-color="#014B84"/>
</linearGradient>
</defs>
</svg>
