<svg width="197" height="584" viewBox="0 0 197 584" fill="none" xmlns="http://www.w3.org/2000/svg">
<circle cx="107.256" cy="333.075" r="6" transform="rotate(11.4595 107.256 333.075)" fill="white" fill-opacity="0.07"/>
<circle cx="158.81" cy="171.74" r="6.5" transform="rotate(-5.22427 158.81 171.74)" fill="white" fill-opacity="0.07"/>
<circle cx="9.08795" cy="144.088" r="8.36134" transform="rotate(-5.22427 9.08795 144.088)" fill="white" fill-opacity="0.07"/>
<path fill-rule="evenodd" clip-rule="evenodd" d="M182.802 290.071C184.669 288.992 187.208 288.901 189.235 289.635C189.6 289.768 189.978 289.88 190.366 289.97C195.617 291.187 200.86 287.918 202.078 282.667C203.295 277.416 200.026 272.172 194.775 270.955C189.524 269.738 184.281 273.007 183.063 278.258C182.961 278.697 182.891 279.136 182.85 279.572C182.663 281.597 181.465 283.694 179.705 284.711V284.711V284.711C177.695 285.873 173.046 286.073 171.304 284.539C170.388 283.733 169.401 282.984 168.345 282.302C159.042 276.299 147.22 277.334 139.136 284.059C136.88 285.935 133.463 286.21 131.091 284.482V284.482V284.482C126.827 281.378 124.351 275.076 124.956 269.836C126.129 259.672 121.613 249.245 112.435 243.322C99.5598 235.014 82.3878 238.716 74.0796 251.59C69.4461 258.771 68.5482 267.288 70.8938 274.858C71.367 276.386 70.5998 278.074 69.1895 278.827V278.827V278.827C66.7742 280.117 62.9115 279.756 60.5043 278.451C59.9992 278.177 59.4651 277.941 58.9045 277.747C53.3433 275.819 47.2724 278.765 45.3448 284.326C43.4172 289.887 46.3629 295.958 51.9241 297.886C57.4853 299.813 63.5561 296.867 65.4837 291.306V291.306C66.4031 288.654 68.7179 285.689 71.2532 284.484C71.5033 284.365 71.7547 284.238 72.0063 284.104V284.104C73.4703 283.322 75.3658 283.598 76.4558 284.85C78.1299 286.772 80.0991 288.494 82.3481 289.945C91.4549 295.822 102.712 295.69 111.461 290.552C115.762 288.027 122.29 288.095 126.323 291.031V291.031V291.031C129.261 293.171 130.704 296.977 130.343 300.594C129.45 309.53 133.475 318.637 141.539 323.841C143.137 324.872 144.808 325.695 146.522 326.318C147.645 326.726 148.336 327.894 148.323 329.089V329.089V329.089C148.305 330.738 146.996 332.673 145.611 333.567C145.32 333.755 145.041 333.969 144.776 334.208C142.148 336.588 141.947 340.647 144.327 343.275C146.707 345.903 150.766 346.104 153.394 343.724C156.021 341.344 156.222 337.285 153.843 334.657V334.657C152.707 333.404 151.811 331.323 151.908 329.635C151.917 329.468 151.923 329.299 151.925 329.128V329.128C151.934 328.355 152.586 327.695 153.357 327.744C162.002 328.292 170.681 324.271 175.712 316.475C179.519 310.575 180.495 303.662 178.985 297.332C178.456 295.114 180.827 291.212 182.802 290.071V290.071V290.071ZM147.156 298.05C144.38 302.351 145.617 308.088 149.918 310.864C154.22 313.64 159.957 312.403 162.733 308.102C165.509 303.8 164.272 298.063 159.97 295.287C155.669 292.511 149.931 293.748 147.156 298.05ZM88.6515 260.996C85.536 265.824 86.9242 272.264 91.7522 275.379C96.5802 278.495 103.02 277.107 106.135 272.279C109.251 267.451 107.863 261.011 103.035 257.895C98.2066 254.78 91.7671 256.168 88.6515 260.996Z" fill="white" fill-opacity="0.07"/>
<path fill-rule="evenodd" clip-rule="evenodd" d="M35.9404 76.7703C33.1305 75.4256 29.4442 75.7264 26.7218 77.2403C26.1366 77.5657 25.5227 77.8556 24.8818 78.1061C17.1954 81.1101 8.52917 77.3142 5.52516 69.6279C2.52116 61.9415 6.31698 53.2752 14.0034 50.2712C21.6897 47.2672 30.356 51.063 33.36 58.7494C33.5824 59.3185 33.7675 59.893 33.9166 60.4701C34.7421 63.6668 37.0535 66.7966 40.0315 68.2219V68.2219V68.2219C42.9884 69.637 47.5286 68.8768 49.2678 66.0982C54.0487 58.46 61.2374 52.237 70.2751 48.7049C82.2676 44.0179 95.0801 45.0211 105.732 50.4086C108.977 52.0501 113.328 50.7321 115.489 47.8064V47.8064C115.756 47.4444 116.028 47.0934 116.304 46.7541C119.11 43.3014 120.401 37.4822 119.909 33.0604V33.0604C118.878 23.7921 125.556 15.4431 134.824 14.4122C144.092 13.3813 152.441 20.0591 153.472 29.3273C154.503 38.5956 147.825 46.9447 138.557 47.9755C137.623 48.0794 136.699 48.105 135.791 48.0576C131.459 47.8318 125.689 49.9462 123.113 53.4359V53.4359V53.4359C120.642 56.7822 120.136 61.8164 122.419 65.2937C124.055 67.7846 125.457 70.4824 126.585 73.3687C135.324 95.729 124.282 120.94 101.922 129.679C97.4684 131.419 92.9022 132.375 88.3756 132.613C84.7697 132.803 81.602 135.947 80.9214 139.493V139.493V139.493C80.438 142.012 81.6515 144.661 83.6232 146.302C84.8009 147.282 85.8467 148.461 86.7077 149.828C91.107 156.81 89.0132 166.036 82.031 170.435C75.0488 174.835 65.8223 172.741 61.423 165.759C57.0237 158.777 59.1176 149.55 66.0997 145.151C66.932 144.626 67.7962 144.194 68.6802 143.852C71.1724 142.886 73.3045 140.753 73.8082 138.128V138.128V138.128C74.4729 134.665 72.6463 130.678 69.3908 129.322C58.8756 124.943 50.085 116.462 45.6113 105.015C43.2493 98.9715 42.3324 92.7196 42.6935 86.641C42.9283 82.688 39.5124 78.4798 35.9404 76.7703V76.7703V76.7703ZM92.0314 104.366C100.417 101.089 104.557 91.635 101.28 83.2498C98.0033 74.8647 88.5492 70.7238 80.164 74.0009C71.7789 77.278 67.638 86.7321 70.9151 95.1172C74.1922 103.502 83.6463 107.643 92.0314 104.366Z" fill="white" fill-opacity="0.07"/>
<path fill-rule="evenodd" clip-rule="evenodd" d="M151.92 462.801C151.972 462.393 152.047 461.994 152.144 461.604C152.685 459.446 152.324 456.848 151.019 455.046V455.046V455.046C149.725 453.256 146.793 452.245 144.869 453.33C139.58 456.313 133.32 457.683 126.833 456.865C110.782 454.84 99.4125 440.187 101.437 424.136V424.136C101.654 422.418 99.6111 419.927 97.9746 419.359C97.2235 419.098 96.4313 418.759 95.6316 418.346V418.346C94.0954 417.552 92.1513 417.831 90.7143 418.793C89.8564 419.367 88.895 419.817 87.848 420.113C82.4962 421.624 76.9327 418.511 75.4216 413.159C73.9105 407.807 77.024 402.244 82.3759 400.732C87.7277 399.221 93.2911 402.335 94.8022 407.687C94.9823 408.324 95.0967 408.965 95.1495 409.602C95.2983 411.397 96.2703 413.182 97.871 414.009V414.009V414.009C99.8904 415.052 104.434 414.228 105.638 412.3C111.501 402.91 122.462 397.265 134.166 398.741C150.216 400.766 161.586 415.419 159.561 431.469C159.014 435.807 157.544 439.803 155.373 443.286C153.962 445.55 154.629 449.14 156.193 451.302V451.302V451.302C157.424 453.003 159.703 454.012 161.803 453.992C162.254 453.988 162.71 454.014 163.17 454.072C168.688 454.768 172.596 459.805 171.9 465.322C171.204 470.839 166.167 474.748 160.65 474.052C155.132 473.356 151.224 468.319 151.92 462.801ZM131.872 416.91C125.853 416.15 120.358 420.414 119.599 426.433C118.84 432.452 123.103 437.947 129.122 438.706C135.141 439.465 140.636 435.202 141.395 429.183C142.155 423.164 137.891 417.669 131.872 416.91Z" fill="white" fill-opacity="0.07"/>
<path fill-rule="evenodd" clip-rule="evenodd" d="M215.441 511.211C217.796 504.97 224.221 500.73 230.177 497.725C234.746 495.419 238.482 491.438 240.376 486.252C244.33 475.424 238.758 463.441 227.93 459.487C217.102 455.533 205.119 461.105 201.165 471.933C198.651 478.819 199.988 486.171 204.08 491.629C207.608 496.335 210.154 502.93 208.077 508.432V508.432V508.432C206.651 512.212 202.467 514.296 198.427 514.339C189.623 514.431 181.39 519.895 178.192 528.654V528.654C177.392 530.843 174.509 532.279 172.242 531.737C171.067 531.457 169.776 531.247 168.416 531.13V531.13C164.713 530.811 161.057 527.778 159.496 524.404C159.348 524.083 159.188 523.764 159.017 523.449C154.793 515.646 145.296 512.608 137.805 516.663C130.314 520.719 127.667 530.332 131.891 538.134C136.115 545.937 145.612 548.975 153.103 544.92C153.919 544.478 154.678 543.97 155.376 543.405C158.687 540.731 163.501 538.604 167.742 538.969V538.969V538.969C172.142 539.347 177.464 542.829 179.605 546.692C182.057 551.118 186.055 554.714 191.181 556.585C202.481 560.712 214.986 554.896 219.112 543.597C221.406 537.314 220.627 530.659 217.542 525.279C215.104 521.029 213.712 515.794 215.441 511.211V511.211V511.211ZM225.316 487.378C229.87 485.012 231.644 479.402 229.278 474.848C226.912 470.295 221.302 468.521 216.748 470.887C212.194 473.253 210.421 478.863 212.787 483.416C215.153 487.97 220.762 489.744 225.316 487.378Z" fill="white" fill-opacity="0.07"/>
</svg>
