<svg width="246" height="261" viewBox="0 0 246 261" fill="none" xmlns="http://www.w3.org/2000/svg">
<path fill-rule="evenodd" clip-rule="evenodd" d="M195.33 228.846C194.771 227.993 193.689 227.453 192.671 227.416C192.452 227.408 192.231 227.385 192.009 227.346C189.349 226.885 187.567 224.355 188.028 221.695C188.489 219.036 191.019 217.253 193.679 217.714C196.339 218.176 198.121 220.706 197.66 223.365C197.626 223.562 197.581 223.755 197.525 223.941C197.214 224.976 197.331 226.243 197.923 227.146C198.511 228.043 199.91 228.599 200.867 228.116C203.499 226.788 206.564 226.264 209.692 226.807C213.842 227.526 217.257 229.977 219.326 233.289C219.956 234.298 221.397 234.666 222.497 234.213C222.633 234.157 222.769 234.105 222.904 234.056C224.274 233.566 225.621 232.156 226.232 230.835C227.513 228.066 230.796 226.861 233.564 228.142C236.333 229.423 237.538 232.706 236.257 235.475C234.975 238.243 231.693 239.448 228.924 238.167C228.646 238.038 228.383 237.889 228.136 237.722C226.962 236.925 224.989 236.539 223.677 237.08C222.419 237.598 221.425 238.921 221.475 240.281C221.51 241.255 221.446 242.247 221.273 243.246C219.931 250.984 212.571 256.169 204.834 254.827C203.293 254.56 201.853 254.054 200.546 253.354C199.505 252.796 198.086 253.14 197.295 254.017C196.733 254.64 196.623 255.587 196.897 256.38C197.061 256.854 197.154 257.361 197.163 257.889C197.212 260.588 195.063 262.815 192.364 262.864C189.665 262.913 187.438 260.764 187.389 258.065C187.34 255.366 189.489 253.138 192.188 253.09C192.51 253.084 192.825 253.109 193.13 253.163C193.991 253.315 194.95 253.079 195.535 252.43C196.308 251.573 196.472 250.148 195.79 249.218C193.589 246.211 192.566 242.349 193.252 238.388C193.615 236.296 194.417 234.391 195.548 232.751C196.283 231.685 196.04 229.929 195.33 228.846ZM206.353 246.068C209.254 246.571 212.014 244.627 212.518 241.725C213.021 238.824 211.076 236.064 208.175 235.561C205.273 235.058 202.513 237.002 202.01 239.904C201.507 242.805 203.451 245.565 206.353 246.068Z" fill="white" fill-opacity="0.12"/>
<path fill-rule="evenodd" clip-rule="evenodd" d="M151.938 133.972C152.126 134.673 152.737 135.279 153.418 135.531C153.564 135.585 153.708 135.65 153.849 135.725C155.545 136.629 156.187 138.736 155.283 140.432C154.38 142.128 152.272 142.77 150.576 141.866C148.881 140.962 148.239 138.855 149.142 137.159C149.209 137.034 149.283 136.914 149.362 136.8C149.802 136.17 150.006 135.287 149.806 134.544C149.608 133.807 148.786 133.12 148.031 133.233C145.956 133.545 143.767 133.218 141.773 132.155C139.127 130.745 137.363 128.328 136.701 125.629C136.5 124.806 135.607 124.236 134.763 124.298C134.658 124.305 134.555 124.311 134.453 124.313C133.417 124.34 132.193 124.994 131.486 125.751C130.004 127.337 127.516 127.422 125.929 125.94C124.342 124.457 124.258 121.969 125.74 120.383C127.223 118.796 129.71 118.711 131.297 120.194C131.457 120.343 131.602 120.503 131.731 120.671C132.347 121.471 133.595 122.17 134.603 122.097C135.569 122.027 136.535 121.353 136.804 120.423C136.997 119.756 137.261 119.099 137.6 118.463C140.229 113.529 146.36 111.661 151.293 114.29C152.275 114.814 153.136 115.476 153.864 116.24C154.444 116.849 155.48 116.933 156.21 116.516C156.729 116.219 157.013 115.603 157.005 115.006C157 114.649 157.05 114.286 157.161 113.927C157.728 112.091 159.677 111.063 161.513 111.631C163.348 112.199 164.376 114.147 163.808 115.983C163.241 117.819 161.292 118.847 159.456 118.279C159.238 118.211 159.03 118.124 158.836 118.019C158.287 117.725 157.587 117.671 157.046 117.98C156.333 118.387 155.905 119.314 156.159 120.095C156.978 122.618 156.811 125.457 155.465 127.983C154.755 129.316 153.788 130.425 152.659 131.282C151.925 131.84 151.699 133.082 151.938 133.972ZM148.317 119.874C146.467 118.888 144.168 119.589 143.182 121.439C142.196 123.289 142.897 125.588 144.747 126.574C146.596 127.559 148.895 126.859 149.881 125.009C150.867 123.159 150.167 120.86 148.317 119.874Z" fill="white" fill-opacity="0.12"/>
<path fill-rule="evenodd" clip-rule="evenodd" d="M162.839 192.311C163.537 192.325 164.256 192.726 164.695 193.269C164.774 193.367 164.86 193.462 164.952 193.552C166.203 194.77 168.205 194.743 169.423 193.492C170.642 192.241 170.615 190.239 169.364 189.021C168.113 187.803 166.111 187.829 164.893 189.081C164.791 189.185 164.697 189.295 164.613 189.409C164.221 189.939 163.538 190.319 162.879 190.306C162.128 190.291 160.805 189.566 160.579 188.849C160.461 188.472 160.313 188.099 160.134 187.733C158.563 184.508 155.113 182.812 151.744 183.32C150.804 183.461 149.811 182.964 149.443 182.087C148.782 180.512 149.153 178.35 150.199 176.999C152.23 174.379 152.727 170.731 151.177 167.549C149.002 163.087 143.621 161.232 139.159 163.407C136.67 164.62 134.992 166.83 134.372 169.322C134.247 169.824 133.751 170.164 133.234 170.136C132.348 170.088 131.337 169.34 130.889 168.574C130.795 168.414 130.687 168.259 130.564 168.111C129.346 166.644 127.169 166.442 125.702 167.66C124.235 168.878 124.033 171.055 125.251 172.522C126.469 173.989 128.646 174.191 130.113 172.973C130.813 172.392 131.952 171.959 132.857 172.05C132.946 172.059 133.037 172.066 133.129 172.071C133.666 172.1 134.146 172.495 134.238 173.024C134.379 173.838 134.636 174.646 135.016 175.425C136.555 178.582 139.697 180.433 142.984 180.477C144.6 180.499 146.397 181.612 147.023 183.103C147.478 184.189 147.24 185.486 146.533 186.428C144.786 188.755 144.374 191.954 145.736 194.75C146.006 195.304 146.332 195.812 146.702 196.273C146.945 196.574 146.941 197.013 146.737 197.342C146.455 197.796 145.768 198.113 145.233 198.128C145.121 198.131 145.008 198.144 144.894 198.166C143.766 198.385 143.03 199.476 143.249 200.604C143.467 201.731 144.559 202.468 145.686 202.249C146.814 202.03 147.551 200.939 147.332 199.811C147.227 199.274 147.328 198.547 147.638 198.096C147.669 198.051 147.699 198.005 147.729 197.957C147.861 197.744 148.152 197.671 148.357 197.814C150.662 199.416 153.742 199.757 156.444 198.44C158.489 197.444 159.919 195.691 160.562 193.684C160.788 192.98 162.1 192.296 162.839 192.311ZM151.619 188.543C150.129 189.27 149.509 191.067 150.236 192.558C150.962 194.049 152.76 194.669 154.251 193.942C155.742 193.216 156.361 191.418 155.635 189.927C154.908 188.436 153.11 187.816 151.619 188.543ZM141.62 168.459C139.946 169.274 139.251 171.292 140.067 172.965C140.882 174.639 142.9 175.334 144.573 174.519C146.247 173.703 146.942 171.685 146.127 170.012C145.311 168.339 143.293 167.643 141.62 168.459Z" fill="white" fill-opacity="0.12"/>
<circle cx="185.47" cy="156.026" r="2.21314" transform="rotate(42.6423 185.47 156.026)" fill="white" fill-opacity="0.12"/>
<circle cx="245.212" cy="78.1404" r="3.1078" transform="rotate(42.6423 245.212 78.1404)" fill="white" fill-opacity="0.12"/>
<circle cx="114.73" cy="227.482" r="2.39756" transform="rotate(25.9585 114.73 227.482)" fill="white" fill-opacity="0.12"/>
<circle cx="114.604" cy="151.04" r="1.6372" transform="rotate(25.9585 114.604 151.04)" fill="white" fill-opacity="0.12"/>
<circle cx="82.2691" cy="261.832" r="1.6372" transform="rotate(25.9585 82.2691 261.832)" fill="white" fill-opacity="0.12"/>
<circle cx="168.147" cy="75.4948" r="1.6372" transform="rotate(25.9585 168.147 75.4948)" fill="white" fill-opacity="0.12"/>
<circle cx="104.817" cy="253.565" r="4.16875" transform="rotate(25.9585 104.817 253.565)" fill="white" fill-opacity="0.12"/>
<path fill-rule="evenodd" clip-rule="evenodd" d="M224.88 190.664C224.881 190.49 224.891 190.317 224.912 190.148C225.025 189.211 224.736 188.136 224.092 187.446C223.452 186.761 222.165 186.49 221.412 187.048C219.342 188.583 216.778 189.49 214.003 189.488C207.138 189.483 201.577 183.913 201.582 177.047C201.583 176.312 200.591 175.371 199.872 175.218C199.542 175.148 199.19 175.047 198.832 174.915C198.143 174.662 197.339 174.882 196.785 175.363C196.454 175.65 196.073 175.89 195.647 176.07C193.474 176.989 190.967 175.972 190.048 173.798C189.129 171.624 190.146 169.117 192.32 168.198C194.494 167.279 197.001 168.297 197.92 170.471C198.029 170.73 198.111 170.993 198.167 171.258C198.325 172.007 198.828 172.707 199.546 172.971C200.451 173.303 202.321 172.716 202.726 171.841C204.7 167.578 209.017 164.622 214.024 164.626C220.889 164.632 226.45 170.202 226.445 177.067C226.443 178.923 226.035 180.683 225.305 182.264C224.83 183.292 225.3 184.769 226.073 185.596C226.681 186.248 227.694 186.552 228.577 186.433C228.767 186.407 228.96 186.394 229.157 186.394C231.517 186.396 233.429 188.311 233.427 190.671C233.425 193.031 231.51 194.943 229.15 194.941C226.79 194.939 224.879 193.024 224.88 190.664ZM214.017 172.398C211.442 172.395 209.353 174.481 209.351 177.055C209.349 179.63 211.435 181.719 214.009 181.721C216.584 181.723 218.673 179.638 218.675 177.063C218.677 174.488 216.591 172.4 214.017 172.398Z" fill="white" fill-opacity="0.12"/>
<path fill-rule="evenodd" clip-rule="evenodd" d="M250.236 22.1122C250.126 22.0223 250.024 21.927 249.928 21.8271C249.399 21.2733 248.576 20.9016 247.811 20.9506C247.052 20.9993 246.219 21.6678 246.182 22.4275C246.08 24.5163 245.33 26.5916 243.9 28.3316C240.364 32.6362 234.007 33.2587 229.702 29.7219C229.241 29.3431 228.14 29.4812 227.674 29.8537C227.46 30.0245 227.216 30.193 226.949 30.3501C226.436 30.6521 226.16 31.2698 226.176 31.8651C226.186 32.2204 226.141 32.5832 226.035 32.9425C225.492 34.7792 223.564 35.8285 221.727 35.2862C219.89 34.7439 218.841 32.8153 219.383 30.9786C219.926 29.1419 221.854 28.0926 223.691 28.6349C223.91 28.6995 224.117 28.7838 224.313 28.8853C224.863 29.1715 225.562 29.2161 226.097 28.9015C226.771 28.5046 227.365 27.0294 227.025 26.3248C225.366 22.8926 225.733 18.6627 228.312 15.5238C231.849 11.2192 238.205 10.5968 242.51 14.1335C243.673 15.0895 244.568 16.2514 245.184 17.5231C245.585 18.35 246.753 18.8147 247.67 18.7559C248.392 18.7096 249.104 18.2306 249.484 17.6153C249.565 17.4832 249.657 17.355 249.758 17.2317C250.974 15.7519 253.159 15.538 254.639 16.7537C256.118 17.9695 256.332 20.1546 255.117 21.6343C253.901 23.114 251.716 23.328 250.236 22.1122ZM233.184 19.5277C231.858 21.1419 232.091 23.5257 233.705 24.852C235.32 26.1783 237.703 25.9448 239.03 24.3306C240.356 22.7164 240.123 20.3326 238.508 19.0063C236.894 17.68 234.51 17.9135 233.184 19.5277Z" fill="white" fill-opacity="0.12"/>
<path fill-rule="evenodd" clip-rule="evenodd" d="M74.3344 224.072C74.1775 224.09 74.0216 224.099 73.8675 224.098C73.0126 224.095 72.0767 224.468 71.5239 225.12C70.9752 225.767 70.8671 226.953 71.4483 227.571C73.0464 229.27 74.1317 231.479 74.4216 233.975C75.1388 240.147 70.7161 245.733 64.5433 246.45C63.8824 246.527 63.1404 247.518 63.0785 248.181C63.0501 248.485 62.9962 248.811 62.9156 249.147C62.7606 249.793 63.043 250.493 63.5334 250.941C63.826 251.208 64.0822 251.525 64.2884 251.889C65.343 253.746 64.6921 256.107 62.8344 257.162C60.9767 258.217 58.6157 257.566 57.5611 255.708C56.5064 253.85 57.1574 251.489 59.0151 250.435C59.2366 250.309 59.4653 250.207 59.6981 250.129C60.3541 249.909 60.931 249.383 61.0924 248.71C61.2961 247.861 60.5716 246.241 59.7423 245.969C55.7021 244.643 52.5907 241.073 52.0677 236.572C51.3505 230.399 55.7732 224.813 61.9461 224.096C63.6146 223.902 65.2401 224.084 66.7383 224.574C67.7123 224.893 68.9899 224.315 69.6528 223.533C70.1744 222.918 70.3416 221.975 70.1416 221.194C70.0986 221.026 70.0665 220.853 70.0459 220.676C69.7994 218.554 71.3197 216.634 73.4416 216.388C75.5635 216.141 77.4835 217.662 77.7301 219.783C77.9766 221.905 76.4563 223.825 74.3344 224.072ZM59.0554 235.761C59.3244 238.075 61.4189 239.734 63.7338 239.465C66.0486 239.196 67.7071 237.101 67.4381 234.787C67.1692 232.472 65.0746 230.813 62.7598 231.082C60.445 231.351 58.7865 233.446 59.0554 235.761Z" fill="white" fill-opacity="0.12"/>
<path fill-rule="evenodd" clip-rule="evenodd" d="M130.271 254.348C130.469 256.969 128.881 259.553 127.255 261.617C126.007 263.201 125.336 265.245 125.523 267.412C125.914 271.936 129.899 275.287 134.423 274.897C138.948 274.506 142.299 270.521 141.908 265.997C141.66 263.119 139.958 260.716 137.588 259.449C135.545 258.356 133.538 256.425 133.363 254.115C133.243 252.528 134.39 251.087 135.826 250.4C138.954 248.901 140.985 245.579 140.668 241.919C140.589 241.004 141.38 240.011 142.28 239.827C142.746 239.732 143.242 239.592 143.747 239.407C145.122 238.905 146.933 239.379 148.051 240.324C148.158 240.414 148.268 240.501 148.382 240.585C151.189 242.668 155.086 242.172 157.085 239.477C159.085 236.782 158.43 232.909 155.623 230.826C152.815 228.743 148.919 229.239 146.919 231.934C146.701 232.228 146.515 232.535 146.359 232.853C145.622 234.359 144.258 235.92 142.683 236.496C141.048 237.093 138.568 236.736 137.161 235.713C135.548 234.541 133.522 233.923 131.38 234.108C126.659 234.516 123.161 238.674 123.569 243.396C123.796 246.021 125.182 248.268 127.18 249.675C128.757 250.787 130.126 252.424 130.271 254.348ZM130.713 264.502C129.481 266.105 129.781 268.404 131.384 269.636C132.987 270.868 135.285 270.567 136.518 268.965C137.75 267.362 137.449 265.063 135.846 263.831C134.243 262.599 131.945 262.9 130.713 264.502Z" fill="white" fill-opacity="0.12"/>
<path fill-rule="evenodd" clip-rule="evenodd" d="M238.982 133.5C239.555 135.691 241.573 137.351 243.476 138.577C244.937 139.518 246.057 140.995 246.512 142.814C247.461 146.61 245.153 150.457 241.357 151.407C237.561 152.356 233.713 150.048 232.764 146.252C232.16 143.838 232.874 141.403 234.449 139.706C235.808 138.243 236.902 136.107 236.397 134.176C236.05 132.849 234.711 131.996 233.348 131.838C230.38 131.493 227.795 129.355 227.027 126.285C226.835 125.517 225.913 124.93 225.129 125.032C224.722 125.085 224.278 125.11 223.815 125.101C222.553 125.077 221.211 125.971 220.564 127.054C220.503 127.157 220.437 127.259 220.368 127.36C218.665 129.843 215.35 130.531 212.966 128.895C210.581 127.259 210.029 123.92 211.733 121.436C213.437 118.952 216.752 118.264 219.136 119.9C219.396 120.079 219.634 120.277 219.85 120.492C220.872 121.513 222.422 122.403 223.866 122.43C225.365 122.459 227.286 121.473 228.146 120.245C229.132 118.838 230.609 117.767 232.407 117.317C236.369 116.326 240.383 118.735 241.374 122.697C241.925 124.899 241.425 127.118 240.192 128.825C239.218 130.173 238.561 131.891 238.982 133.5ZM241.467 141.897C242.921 142.858 243.32 144.815 242.359 146.268C241.398 147.722 239.441 148.121 237.988 147.16C236.535 146.199 236.135 144.242 237.096 142.789C238.057 141.336 240.014 140.937 241.467 141.897Z" fill="white" fill-opacity="0.12"/>
<path fill-rule="evenodd" clip-rule="evenodd" d="M189.496 84.7739C188.765 85.5449 188.477 86.7729 188.683 87.8151C188.727 88.0395 188.757 88.2695 188.771 88.5042C188.941 91.3143 186.8 93.7298 183.99 93.8993C181.18 94.0689 178.765 91.9283 178.595 89.1183C178.426 86.3082 180.566 83.8928 183.376 83.7232C183.584 83.7107 183.79 83.7108 183.992 83.7228C185.117 83.7897 186.375 83.3672 187.15 82.5498C187.969 81.6853 188.578 79.3793 187.983 78.347C186.288 75.4012 185.751 71.7947 186.782 68.2752C188.144 63.6245 191.893 60.3229 196.304 59.3143C196.697 59.2244 196.926 58.7975 196.815 58.4097C196.791 58.3236 196.769 58.2381 196.749 58.1534C196.547 57.2935 195.789 56.3843 195.034 55.9251C193.453 54.9624 192.951 52.8998 193.914 51.3182C194.876 49.7365 196.939 49.2348 198.521 50.1974C200.102 51.1601 200.604 53.2227 199.641 54.8043C199.544 54.9636 199.436 55.1119 199.319 55.2489C198.757 55.9024 198.39 57.0662 198.625 57.8947C198.796 58.4946 199.315 58.9766 199.937 59.0142C200.888 59.0715 201.848 59.2357 202.801 59.5149C206.902 60.7164 209.954 63.7746 211.31 67.5056C211.873 69.0553 215.548 70.9918 217.131 71.4553C219.65 72.1933 221.094 74.8337 220.356 77.3529C220.134 78.1119 219.739 78.7733 219.226 79.3069C218.91 79.6357 218.855 80.8136 219.037 81.2317C219.213 81.6358 219.636 81.945 220.067 82.0351C220.16 82.0545 220.253 82.0805 220.345 82.1132C221.446 82.5043 222.022 83.7138 221.631 84.8148C221.24 85.9158 220.03 86.4914 218.929 86.1003C217.828 85.7093 217.253 84.4997 217.644 83.3987C217.673 83.3175 217.706 83.2392 217.743 83.1639C217.951 82.7451 217.994 82.1959 217.807 81.7672C217.633 81.3675 216.744 80.6954 216.311 80.7429C215.706 80.8093 215.079 80.7598 214.458 80.5781C212.988 80.1474 209.256 80.1156 208.154 81.1804C204.926 84.3009 200.159 85.6466 195.542 84.2941C194.912 84.1096 194.307 83.8812 193.728 83.6133C192.628 83.1036 190.33 83.8941 189.496 84.7739ZM200.531 67.2568C203.097 68.0084 204.567 70.6979 203.816 73.2639C203.064 75.8299 200.375 77.3006 197.809 76.549C195.243 75.7973 193.772 73.1079 194.524 70.5419C195.275 67.9759 197.965 66.5051 200.531 67.2568ZM216.295 74.3056C217.24 74.5823 217.781 75.5725 217.505 76.5172C217.228 77.4619 216.238 78.0034 215.293 77.7267C214.348 77.4499 213.807 76.4598 214.084 75.5151C214.36 74.5704 215.35 74.0289 216.295 74.3056Z" fill="white" fill-opacity="0.12"/>
<path fill-rule="evenodd" clip-rule="evenodd" d="M96.5871 189.531C95.0738 187.513 95.1731 184.423 95.6054 181.938C95.9416 180.005 95.5105 177.943 94.2408 176.25C91.7982 172.992 87.1771 172.331 83.9192 174.774C80.6614 177.216 80.0005 181.838 82.4431 185.095C83.5507 186.573 85.1061 187.516 86.7793 187.878C89.3631 188.437 92.4172 189.353 94.0031 191.469C95.2749 193.165 95.2489 195.613 95.0782 197.726C94.9612 199.175 95.3523 200.67 96.2927 201.925C98.3383 204.653 102.208 205.206 104.937 203.161C107.665 201.115 108.218 197.245 106.173 194.517C105.17 193.18 103.73 192.365 102.2 192.123C100.155 191.798 97.8294 191.188 96.5871 189.531ZM91.6709 180.925C91.8485 179.121 90.5301 177.514 88.7261 177.337C86.9221 177.159 85.3157 178.478 85.138 180.282C84.9604 182.086 86.2788 183.692 88.0828 183.87C89.8868 184.047 91.4932 182.729 91.6709 180.925Z" fill="white" fill-opacity="0.12"/>
</svg>
