<svg width="264" height="472" viewBox="0 0 264 472" fill="none" xmlns="http://www.w3.org/2000/svg">
<path fill-rule="evenodd" clip-rule="evenodd" d="M159.272 113.399C159.047 113.58 158.815 113.745 158.577 113.894C157.256 114.719 156.177 116.204 155.959 117.746V117.746V117.746C155.743 119.277 156.73 121.21 158.227 121.597C162.343 122.662 166.164 125.011 169.038 128.574C176.147 137.39 174.764 150.299 165.949 157.408V157.408C165.005 158.169 164.826 160.418 165.375 161.499C165.627 161.995 165.862 162.551 166.065 163.148V163.148C166.454 164.294 167.569 165.098 168.761 165.311C169.472 165.438 170.175 165.678 170.847 166.037C174.279 167.874 175.572 172.146 173.735 175.578C171.897 179.01 167.626 180.303 164.194 178.466C160.762 176.629 159.468 172.357 161.306 168.925C161.525 168.516 161.778 168.137 162.061 167.79C162.858 166.813 163.235 165.441 162.829 164.247V164.247V164.247C162.318 162.741 159.625 160.949 158.083 161.337C150.567 163.223 142.298 160.747 137.114 154.319C130.005 145.503 131.389 132.594 140.204 125.485C142.587 123.563 145.268 122.262 148.053 121.561C149.865 121.104 151.271 118.971 151.532 117.121V117.121V117.121C151.738 115.666 151.079 114.05 150.011 113.041C149.781 112.824 149.564 112.589 149.36 112.337C146.916 109.306 147.392 104.869 150.422 102.425C153.453 99.9811 157.89 100.457 160.334 103.487C162.778 106.517 162.302 110.955 159.272 113.399ZM147.096 146.272C149.762 149.578 154.603 150.097 157.909 147.431C161.215 144.765 161.733 139.924 159.067 136.618C156.401 133.312 151.56 132.794 148.255 135.46C144.949 138.126 144.43 142.967 147.096 146.272Z" fill="white" fill-opacity="0.07"/>
<path fill-rule="evenodd" clip-rule="evenodd" d="M91.1839 236.852C92.8274 236.388 94.0205 234.894 94.4583 233.244C94.64 232.558 94.8985 231.882 95.2373 231.226C97.7507 226.36 103.733 224.453 108.599 226.966C113.465 229.48 115.372 235.462 112.858 240.328C110.345 245.194 104.363 247.101 99.497 244.587C98.8972 244.278 98.3423 243.915 97.8352 243.508C96.4041 242.361 94.4686 241.737 92.7034 242.236V242.236V242.236C89.9124 243.023 87.414 246.302 87.6738 249.19C88.0957 253.882 87.2318 258.746 84.9099 263.241C81.4217 269.994 75.3517 274.544 68.5301 276.309C66.4518 276.847 65.037 279.127 65.2201 281.266V281.266C65.2428 281.531 65.2591 281.793 65.2691 282.051C65.3714 284.675 67.0679 287.758 69.0096 289.526V289.526C73.0799 293.232 73.3752 299.536 69.6692 303.606C65.9633 307.676 59.6594 307.972 55.5891 304.266C51.5188 300.56 51.2235 294.256 54.9294 290.186C55.3028 289.776 55.7025 289.404 56.1236 289.071C58.1318 287.482 59.8648 284.295 59.6464 281.743V281.743V281.743C59.4369 279.297 57.6983 276.869 55.3308 276.218C53.6349 275.751 51.9617 275.102 50.3365 274.263C37.7457 267.759 32.811 252.28 39.3145 239.689C40.6096 237.182 42.2605 234.979 44.1737 233.108C45.698 231.618 45.8761 228.99 44.7951 227.152V227.152V227.152C44.0274 225.847 42.4569 225.147 40.9435 225.188C40.0392 225.213 39.1156 225.098 38.201 224.828C33.529 223.449 30.8599 218.543 32.2394 213.871C33.6189 209.199 38.5246 206.53 43.1965 207.91C47.8685 209.289 50.5376 214.195 49.1581 218.867C48.9938 219.423 48.7794 219.951 48.5213 220.448C47.7933 221.848 47.68 223.624 48.4801 224.984V224.984V224.984C49.5358 226.778 51.9 227.833 53.8715 227.165C60.2394 225.006 67.4421 225.338 73.8879 228.667C76.7111 230.126 79.1495 232.035 81.1602 234.263C83.4291 236.776 87.9254 237.771 91.1839 236.852V236.852V236.852ZM53.5669 247.053C51.1281 251.774 52.9786 257.579 57.7002 260.018C62.4217 262.456 68.2264 260.606 70.6652 255.884C73.104 251.163 71.2535 245.358 66.5319 242.919C61.8104 240.481 56.0057 242.331 53.5669 247.053Z" fill="white" fill-opacity="0.07"/>
<path fill-rule="evenodd" clip-rule="evenodd" d="M119.569 445.955C120.58 447.527 122.526 448.298 124.395 448.228C125.171 448.199 125.962 448.253 126.757 448.398C132.656 449.471 136.568 455.124 135.495 461.023C134.421 466.923 128.768 470.835 122.869 469.761C116.97 468.687 113.058 463.035 114.131 457.135C114.264 456.409 114.466 455.712 114.729 455.051C115.472 453.185 115.505 450.959 114.418 449.27V449.27V449.27C112.7 446.599 108.466 445.033 105.525 446.23C100.748 448.174 95.3789 448.826 89.929 447.834C81.7417 446.344 75.0338 441.446 71.0021 434.869C69.7741 432.866 66.9347 432.115 64.7545 432.991V432.991C64.4845 433.099 64.2155 433.2 63.9485 433.293C61.2338 434.241 58.5495 437.004 57.3201 439.603V439.603C54.7432 445.051 48.2376 447.379 42.7895 444.802C37.3414 442.225 35.0138 435.719 37.5908 430.271C40.1677 424.823 46.6733 422.496 52.1214 425.073C52.6702 425.332 53.1872 425.632 53.6708 425.966C55.9774 427.56 59.869 428.354 62.4704 427.308V427.308V427.308C64.9639 426.306 66.9485 423.709 66.8721 421.022C66.8173 419.097 66.9609 417.136 67.3196 415.165C70.0975 399.9 84.724 389.778 99.9888 392.556C103.029 393.109 105.865 394.132 108.436 395.537C110.484 396.656 113.294 396.001 114.871 394.281V394.281V394.281C115.992 393.059 116.223 391.19 115.694 389.619C115.379 388.68 115.203 387.676 115.193 386.632C115.142 381.299 119.423 376.934 124.756 376.882C130.09 376.831 134.455 381.112 134.506 386.445C134.558 391.779 130.276 396.144 124.943 396.195C124.308 396.201 123.687 396.146 123.085 396.035C121.386 395.721 119.489 396.171 118.321 397.445V397.445V397.445C116.78 399.125 116.433 401.938 117.764 403.788C122.062 409.764 124.02 417.411 122.598 425.225C121.975 428.647 120.757 431.811 119.07 434.629C117.165 437.809 117.562 442.838 119.569 445.955V445.955V445.955ZM96.8412 409.835C91.1169 408.793 85.632 412.589 84.5903 418.313C83.5485 424.037 87.3445 429.522 93.0688 430.564C98.7931 431.606 104.278 427.81 105.32 422.086C106.361 416.361 102.566 410.876 96.8412 409.835Z" fill="white" fill-opacity="0.07"/>
<circle cx="32.5" cy="126.5" r="5.5" fill="white" fill-opacity="0.07"/>
<circle cx="10.3821" cy="339.382" r="7.66487" transform="rotate(28.2862 10.3821 339.382)" fill="white" fill-opacity="0.07"/>
<circle cx="125.113" cy="325.113" r="5.99002" transform="rotate(28.2862 125.113 325.113)" fill="white" fill-opacity="0.07"/>
<circle cx="96.2035" cy="462.203" r="3.10308" transform="rotate(28.2862 96.2035 462.203)" fill="white" fill-opacity="0.07"/>
<circle cx="64.8315" cy="43.8317" r="11.9549" transform="rotate(39.5994 64.8315 43.8317)" fill="white" fill-opacity="0.07"/>
<path fill-rule="evenodd" clip-rule="evenodd" d="M243.063 31.3397C244.68 30.9587 246.574 31.4562 247.907 32.4486C248.147 32.6274 248.4 32.7938 248.666 32.9464C252.27 35.012 256.865 33.7655 258.931 30.1622C260.997 26.5589 259.75 21.9633 256.147 19.8976C252.544 17.8319 247.948 19.0785 245.882 22.6818C245.71 22.9832 245.56 23.2915 245.433 23.6048C244.844 25.057 243.495 26.3378 241.969 26.697V26.697V26.697C240.228 27.1072 236.755 26.2217 235.81 24.7024C235.314 23.9037 234.752 23.1318 234.124 22.3939C228.595 15.8963 219.644 14.0316 212.184 17.1955C210.102 18.0786 207.52 17.5214 206.154 15.7193V15.7193V15.7193C203.698 12.4806 203.272 7.28115 204.883 3.54983C208.009 -3.68837 206.995 -12.3861 201.54 -18.7967C193.888 -27.7889 180.396 -28.8755 171.404 -21.2238C166.389 -16.9564 163.833 -10.8724 163.88 -4.76553C163.889 -3.53346 162.948 -2.4579 161.74 -2.21596V-2.21596V-2.21596C159.671 -1.80171 156.902 -2.92654 155.416 -4.42414C155.104 -4.7384 154.763 -5.03153 154.393 -5.29951C150.718 -7.95812 145.584 -7.1346 142.926 -3.46012C140.267 0.214364 141.09 5.34834 144.765 8.00695C148.439 10.6656 153.573 9.84204 156.232 6.16756V6.16756C157.5 4.41488 159.867 2.74182 162.006 2.41613C162.216 2.38405 162.43 2.34653 162.645 2.30345V2.30345C163.899 2.05232 165.236 2.6774 165.762 3.8432C166.57 5.63362 167.64 7.34183 168.977 8.91271C174.389 15.2733 182.724 17.6784 190.321 15.8333C194.056 14.9262 198.857 16.428 201.179 19.4908V19.4908V19.4908C202.872 21.723 203.09 24.8522 202.019 27.4407C199.374 33.8351 200.319 41.4492 205.112 47.0816C206.061 48.1974 207.112 49.1766 208.238 50.0171C208.976 50.5677 209.226 51.5824 208.95 52.4609V52.4609V52.4609C208.571 53.6736 207.175 54.8109 205.954 55.1623C205.697 55.2361 205.444 55.3316 205.195 55.4497C202.727 56.6213 201.676 59.5716 202.848 62.0394C204.019 64.5071 206.97 65.558 209.437 64.3864C211.905 63.2148 212.956 60.2646 211.785 57.7968V57.7968C211.226 56.6198 211.027 54.8853 211.474 53.6615C211.518 53.5407 211.56 53.4171 211.6 53.2908V53.2908C211.778 52.7228 212.405 52.381 212.963 52.5884C219.22 54.9144 226.517 53.8773 231.962 49.244C236.083 45.7376 238.34 40.8546 238.633 35.8486C238.736 34.0939 241.352 31.7427 243.063 31.3397V31.3397V31.3397ZM214.989 29.3008C211.985 31.8572 211.622 36.3652 214.178 39.3695C216.735 42.3739 221.243 42.737 224.247 40.1805C227.251 37.624 227.614 33.116 225.058 30.1117C222.501 27.1073 217.994 26.7443 214.989 29.3008ZM180.064 -11.0445C176.692 -8.17512 176.285 -3.11541 179.154 0.256659C182.023 3.62873 187.083 4.03622 190.455 1.16682C193.827 -1.70258 194.235 -6.76229 191.365 -10.1344C188.496 -13.5064 183.436 -13.9139 180.064 -11.0445Z" fill="white" fill-opacity="0.07"/>
</svg>
