<svg width="266" height="254" viewBox="0 0 266 254" fill="none" xmlns="http://www.w3.org/2000/svg">
<path fill-rule="evenodd" clip-rule="evenodd" d="M41.1098 68.4456C40.962 67.0844 39.9399 65.9421 38.6931 65.3762C38.1755 65.1412 37.6752 64.8468 37.2016 64.4915C33.6891 61.8562 32.978 56.8725 35.6132 53.36C38.2485 49.8475 43.2322 49.1363 46.7447 51.7716C50.2572 54.4068 50.9684 59.3906 48.3332 62.9031C48.0083 63.336 47.6478 63.7265 47.2588 64.0733C46.161 65.0519 45.4101 66.4992 45.569 67.9612V67.9612V67.9612C45.8201 70.273 48.0798 72.6853 50.3982 72.8647C54.1635 73.1561 57.8933 74.4868 61.1379 76.9211C66.0123 80.5781 68.8018 85.983 69.2889 91.6111C69.4373 93.3262 71.0524 94.7488 72.7682 94.8889V94.8889C72.9809 94.9063 73.1903 94.9283 73.3959 94.9548C75.4841 95.2235 78.1475 94.2926 79.8039 92.9929V92.9929C83.2761 90.2683 88.2996 90.8743 91.0243 94.3465C93.7489 97.8188 93.1428 102.842 89.6706 105.567C86.1984 108.292 81.1748 107.686 78.4502 104.213C78.1758 103.864 77.9351 103.498 77.7278 103.121C76.7389 101.321 74.4496 99.5265 72.4032 99.3594V99.3594V99.3594C70.4408 99.1991 68.2891 100.251 67.4588 102.036C66.8642 103.315 66.1283 104.551 65.248 105.725C58.4292 114.813 45.5334 116.654 36.4445 109.835C34.6345 108.477 33.112 106.878 31.8881 105.116C30.9132 103.713 28.8588 103.222 27.2625 103.832V103.832V103.832C26.1291 104.265 25.3662 105.412 25.1979 106.614C25.0972 107.333 24.8833 108.048 24.5478 108.735C22.8349 112.245 18.6008 113.702 15.0906 111.989C11.5804 110.277 10.1234 106.042 11.8363 102.532C13.5492 99.022 17.7834 97.565 21.2936 99.2779C21.7121 99.4821 22.1015 99.7222 22.4598 99.9927C23.469 100.754 24.8579 101.081 26.039 100.629V100.629V100.629C27.598 100.034 28.7467 98.3053 28.4808 96.6577C27.622 91.3353 28.8434 85.6844 32.3344 81.0312C33.8636 78.9929 35.6985 77.3192 37.7275 76.026C40.0166 74.5669 41.403 71.1444 41.1098 68.4456V68.4456V68.4456ZM44.1644 99.5468C47.5727 102.104 52.4086 101.414 54.9657 98.0055C57.5228 94.5971 56.8327 89.7612 53.4244 87.2041C50.0161 84.647 45.1802 85.3371 42.6231 88.7454C40.066 92.1538 40.7561 96.9897 44.1644 99.5468Z" fill="white" fill-opacity="0.07"/>
<path fill-rule="evenodd" clip-rule="evenodd" d="M197.38 99.4728C197.986 101.422 197.543 104.121 196.58 105.92V105.92C194.56 109.691 195.981 114.386 199.752 116.405C203.523 118.424 208.218 117.004 210.237 113.233C212.257 109.461 210.836 104.767 207.065 102.748C206.685 102.544 206.296 102.376 205.901 102.241C204.018 101.598 201.921 99.7139 201.419 97.7883V97.7883V97.7883C200.923 95.89 201.578 93.5657 203.184 92.4389C206.082 90.4054 208.475 87.5744 209.993 84.0914C214.394 73.9954 209.776 62.2436 199.68 57.8432C192.285 54.6199 184.002 56.2348 178.37 61.2973C176.018 63.4114 171.72 64.1426 168.727 63.1233V63.1233V63.1233C167.215 62.6087 166.176 61.155 165.85 59.5923C165.714 58.9427 165.506 58.2976 165.222 57.6675C163.116 52.9984 157.624 50.9202 152.955 53.0258C148.286 55.1314 146.208 60.6235 148.313 65.2927C150.419 69.9619 155.911 72.04 160.58 69.9344C161.156 69.6749 161.692 69.3639 162.185 69.0094C163.579 68.0091 165.417 67.523 167.04 68.0759V68.0759V68.0759C169.664 68.9693 171.958 72.2102 171.799 74.9774C171.334 83.0756 175.874 90.9735 183.745 94.404C186.884 95.7723 190.184 96.2687 193.372 95.9996C195.086 95.855 196.778 97.2222 197.212 98.8858V98.8858C197.264 99.0855 197.32 99.2814 197.38 99.4728ZM205.151 106.492C203.526 105.622 201.504 106.234 200.634 107.859C199.764 109.484 200.376 111.506 202.001 112.376C203.625 113.246 205.648 112.634 206.518 111.009C207.388 109.384 206.776 107.362 205.151 106.492ZM194.7 69.2724C198.486 70.9226 200.218 75.3295 198.567 79.1155C196.917 82.9015 192.51 84.6329 188.724 82.9828C184.938 81.3326 183.207 76.9257 184.857 73.1397C186.507 69.3537 190.914 67.6223 194.7 69.2724Z" fill="white" fill-opacity="0.07"/>
<circle cx="135.381" cy="141.381" r="4" transform="rotate(5.75058 135.381 141.381)" fill="white" fill-opacity="0.07"/>
<circle cx="14.653" cy="66.6531" r="2.42258" transform="rotate(5.75058 14.653 66.6531)" fill="white" fill-opacity="0.07"/>
<circle cx="106.571" cy="33.571" r="6" transform="rotate(5.75058 106.571 33.571)" fill="white" fill-opacity="0.07"/>
<circle cx="240.778" cy="162.778" r="4.5" transform="rotate(-20.2145 240.778 162.778)" fill="white" fill-opacity="0.07"/>
<path fill-rule="evenodd" clip-rule="evenodd" d="M223.961 229.249C225.078 229.249 226.24 229.865 226.959 230.72C227.089 230.874 227.229 231.021 227.379 231.162C229.418 233.068 232.616 232.959 234.521 230.92C236.427 228.882 236.319 225.684 234.28 223.778C232.241 221.873 229.043 221.981 227.138 224.02C226.978 224.191 226.833 224.369 226.702 224.554C226.093 225.414 225.013 226.044 223.96 226.044V226.044V226.044C222.758 226.044 220.623 224.931 220.239 223.792C220.037 223.193 219.788 222.602 219.491 222.023C216.875 216.923 211.307 214.326 205.941 215.247C204.443 215.504 202.841 214.743 202.224 213.354V213.354V213.354C201.117 210.858 201.638 207.391 203.266 205.198C206.423 200.945 207.098 195.1 204.517 190.068C200.895 183.01 192.238 180.223 185.179 183.844C181.242 185.864 178.634 189.45 177.726 193.452C177.542 194.259 176.761 194.818 175.934 194.79V194.79V194.79C174.517 194.743 172.879 193.581 172.137 192.373C171.982 192.119 171.804 191.875 171.602 191.643C169.608 189.338 166.124 189.087 163.819 191.081C161.515 193.076 161.264 196.56 163.258 198.865C165.252 201.169 168.737 201.42 171.041 199.426V199.426C172.14 198.475 173.946 197.745 175.394 197.861C175.537 197.872 175.683 197.88 175.83 197.885V197.885C176.689 197.914 177.468 198.529 177.632 199.372C177.885 200.667 178.322 201.949 178.955 203.182C181.516 208.175 186.598 211.031 191.851 210.992C194.434 210.974 197.343 212.695 198.391 215.056V215.056V215.056C199.154 216.776 198.816 218.855 197.717 220.383C195.002 224.159 194.448 229.285 196.717 233.706C197.166 234.582 197.702 235.384 198.31 236.107C198.708 236.581 198.715 237.283 198.4 237.815V237.815V237.815C197.965 238.55 196.877 239.079 196.024 239.121C195.845 239.13 195.665 239.153 195.484 239.192C193.689 239.579 192.548 241.347 192.935 243.141C193.321 244.936 195.089 246.077 196.884 245.69C198.678 245.304 199.819 243.536 199.433 241.741V241.741C199.248 240.885 199.385 239.72 199.866 238.988C199.913 238.916 199.959 238.842 200.005 238.766V238.766C200.208 238.421 200.672 238.294 201.005 238.516C204.739 241 209.671 241.445 213.946 239.252C217.18 237.592 219.408 234.746 220.37 231.516C220.707 230.385 222.78 229.249 223.961 229.249V229.249V229.249ZM205.914 223.597C203.555 224.807 202.624 227.699 203.834 230.058C205.044 232.416 207.937 233.347 210.295 232.137C212.653 230.927 213.584 228.035 212.375 225.676C211.165 223.318 208.272 222.387 205.914 223.597ZM189.278 191.835C186.631 193.193 185.586 196.439 186.944 199.086C188.302 201.733 191.548 202.778 194.195 201.42C196.842 200.062 197.887 196.816 196.529 194.169C195.171 191.522 191.925 190.477 189.278 191.835Z" fill="white" fill-opacity="0.07"/>
<path fill-rule="evenodd" clip-rule="evenodd" d="M234.465 49.357C234.322 50.4923 233.546 51.5949 232.585 52.2164C232.412 52.3283 232.243 52.4518 232.081 52.587C229.882 54.4154 229.582 57.6802 231.41 59.8789C233.239 62.0777 236.503 62.3779 238.702 60.5495C240.901 58.721 241.201 55.4563 239.373 53.2575C239.22 53.0739 239.057 52.9036 238.886 52.7466C238.091 52.0172 237.588 50.8381 237.723 49.7672V49.7672V49.7672C237.877 48.5449 239.283 46.5172 240.49 46.273C241.125 46.1447 241.758 45.9677 242.385 45.74C247.906 43.7342 251.26 38.4065 251.012 32.833C250.942 31.2777 251.922 29.746 253.413 29.2976V29.2976V29.2976C256.093 28.4915 259.551 29.4665 261.572 31.4029C265.491 35.1585 271.346 36.5944 276.792 34.6156C284.433 31.8397 288.377 23.3953 285.601 15.7545C284.053 11.4932 280.742 8.38172 276.79 6.94453C275.993 6.65459 275.525 5.78857 275.66 4.95094V4.95094V4.95094C275.889 3.51674 277.281 2.00057 278.604 1.40185C278.882 1.27617 279.153 1.12629 279.415 0.951664C282.014 -0.780206 282.716 -4.29064 280.984 -6.8891C279.252 -9.48756 275.742 -10.1901 273.143 -8.45821C270.545 -6.72634 269.842 -3.21592 271.574 -0.617448V-0.617448C272.4 0.621891 272.911 2.55095 272.607 4.00901C272.577 4.15275 272.55 4.29946 272.526 4.44872V4.44872C272.387 5.31822 271.662 6.03086 270.783 6.09007C269.434 6.18099 268.075 6.46084 266.74 6.94574C261.335 8.90928 257.78 13.7091 257.145 19.0545C256.833 21.6825 254.71 24.4195 252.175 25.1818V25.1818V25.1818C250.329 25.7372 248.258 25.1262 246.845 23.8134C243.355 20.5692 238.215 19.3486 233.429 21.0875C232.481 21.4317 231.597 21.8739 230.784 22.3983C230.252 22.7422 229.536 22.6592 229.036 22.2704V22.2704V22.2704C228.344 21.7338 227.946 20.5602 228.013 19.6877C228.026 19.5049 228.026 19.3185 228.009 19.1298C227.847 17.256 226.196 15.869 224.322 16.0318C222.448 16.1946 221.061 17.8456 221.224 19.7194C221.387 21.5933 223.038 22.9803 224.911 22.8175V22.8175C225.805 22.7398 226.973 23.0283 227.655 23.6109C227.722 23.6681 227.792 23.7246 227.863 23.7802V23.7802C228.187 24.0317 228.257 24.5192 227.989 24.8294C224.984 28.3073 223.9 33.2649 225.58 37.8918C226.853 41.3933 229.461 44.0234 232.62 45.4156C233.728 45.9037 234.616 48.156 234.465 49.357V49.357V49.357ZM242.527 31.7347C241.599 29.1818 238.778 27.8641 236.225 28.7916C233.672 29.719 232.354 32.5404 233.282 35.0932C234.209 37.6461 237.031 38.9637 239.584 38.0363C242.136 37.1088 243.454 34.2875 242.527 31.7347ZM276.952 18.8955C275.911 16.0302 272.744 14.5513 269.879 15.5922C267.014 16.6332 265.535 19.7998 266.576 22.6651C267.617 25.5305 270.783 27.0094 273.649 25.9684C276.514 24.9275 277.993 21.7608 276.952 18.8955Z" fill="white" fill-opacity="0.07"/>
</svg>
