<svg width="10" height="16" viewBox="0 0 10 16" fill="none" xmlns="http://www.w3.org/2000/svg">
<path fill-rule="evenodd" clip-rule="evenodd" d="M6.13292 10.6001C6.13292 10.184 6.41093 9.81631 6.79915 9.66653C8.67162 8.94414 10 7.1272 10 5C10 2.23858 7.76142 0 5 0C2.23858 0 0 2.23858 0 5C0 7.12684 1.32793 8.94353 3.19991 9.66617C3.58821 9.81607 3.86626 10.1838 3.86626 10.6001C3.86626 11.5997 3.26284 12.5904 3.04712 13.5665C3.01627 13.7061 3 13.8511 3 14C3 15.1046 3.89543 16 5 16C6.10457 16 7 15.1046 7 14C7 13.8507 6.98364 13.7052 6.95261 13.5652C6.73633 12.5896 6.13292 11.5993 6.13292 10.6001ZM5 7C6.10457 7 7 6.10457 7 5C7 3.89543 6.10457 3 5 3C3.89543 3 3 3.89543 3 5C3 6.10457 3.89543 7 5 7Z" fill="white"/>
</svg>
