<svg width="170" height="45" viewBox="0 0 170 45" fill="none" xmlns="http://www.w3.org/2000/svg">
<path d="M81.5422 42.3583L82.3192 41.1542C82.9768 41.6001 83.7482 41.8483 84.5421 41.8695C84.9177 41.8882 85.2929 41.8139 85.633 41.6534C85.7565 41.5939 85.8599 41.5001 85.9309 41.3833C86.0019 41.2664 86.0379 41.1315 86.0343 40.9947C86.039 40.8358 85.9942 40.6793 85.9057 40.5471C85.7827 40.4006 85.6278 40.2844 85.4529 40.2074C85.2368 40.0942 84.9383 39.9553 84.4804 39.7855L84.2025 39.6775C83.7687 39.5124 83.3473 39.3163 82.9418 39.0909C82.6377 38.9117 82.3789 38.6653 82.1854 38.3705C81.9894 38.0337 81.8932 37.6483 81.9076 37.259C81.8896 36.8067 82.0419 36.3642 82.3347 36.0189C82.628 35.6827 83.0067 35.4321 83.4307 35.2934C83.8912 35.137 84.3749 35.0588 84.8611 35.0619C85.3397 35.0665 85.8151 35.1428 86.271 35.2883C86.7624 35.4408 87.2286 35.6644 87.6552 35.952L86.8628 37.1767C86.5371 36.9725 86.1923 36.8002 85.8337 36.6621C85.5229 36.553 85.1956 36.499 84.8663 36.5026C84.5601 36.483 84.255 36.5508 83.9864 36.6982C83.9123 36.7422 83.8485 36.8014 83.7991 36.8718C83.7497 36.9422 83.7152 37.0222 83.6988 37.1067C83.6823 37.1912 83.6838 37.2782 83.7034 37.3621C83.7224 37.446 83.7595 37.5248 83.8114 37.5935C83.9293 37.7362 84.079 37.8491 84.2488 37.9228C84.5411 38.073 84.8436 38.202 85.1544 38.3087L85.422 38.4065C85.8517 38.5634 86.271 38.7473 86.6775 38.9571C87.0032 39.1302 87.2806 39.3812 87.4854 39.6877C87.7164 40.0807 87.8307 40.5313 87.8152 40.9868C87.7998 41.4424 87.6552 41.8841 87.3979 42.2605C87.1072 42.6334 86.7166 42.9155 86.271 43.0735C85.7513 43.2598 85.2023 43.3504 84.6502 43.3411C83.5341 43.367 82.4407 43.0213 81.5422 42.3583Z" fill="white"/>
<path d="M95.5844 35.2317V36.7085H93.0682V43.1405H91.3856V36.7085H88.8591V35.2317H95.5844Z" fill="white"/>
<path d="M100.39 35.2317L103.236 43.0427V43.1405H101.394L100.761 41.252H97.8279L97.2053 43.1405H95.3889V43.0427L98.2344 35.2317H100.39ZM98.291 39.8627H100.293L99.2635 36.8474L98.291 39.8627Z" fill="white"/>
<path d="M109.776 35.2317V36.7085H107.27V43.1405H105.582V36.7085H103.051V35.2317H109.776Z" fill="white"/>
<path d="M116.455 41.6534H120.093V43.1405H114.767V35.2317H116.455V41.6534Z" fill="white"/>
<path d="M126.021 35.2317L128.882 43.0427V43.1405H127.04L126.407 41.252H123.474L122.851 43.1405H121.035V43.0427L123.88 35.2317H126.021ZM123.921 39.8627H125.923L124.894 36.8474L123.921 39.8627Z" fill="white"/>
<path d="M135.941 39.3996C136.153 39.5703 136.324 39.7866 136.441 40.0325C136.558 40.2784 136.617 40.5476 136.615 40.8198C136.632 41.1479 136.569 41.4751 136.433 41.7741C136.297 42.0731 136.092 42.3352 135.833 42.5384C135.175 42.9792 134.39 43.1907 133.6 43.1405H130.513V35.2317H133.405C133.948 35.2174 134.489 35.3065 135 35.4941C135.39 35.6374 135.729 35.8913 135.977 36.2248C136.202 36.5492 136.319 36.9363 136.312 37.3311C136.312 37.6795 136.204 38.0194 136.003 38.3036C135.766 38.6225 135.435 38.8584 135.056 38.9777C135.378 39.052 135.68 39.196 135.941 39.3996ZM132.185 36.6004V38.4425H133.163C134.063 38.4425 134.516 38.1184 134.516 37.4803C134.524 37.3547 134.501 37.229 134.448 37.1148C134.395 37.0006 134.314 36.9016 134.212 36.8268C133.951 36.6574 133.643 36.5779 133.332 36.6004H132.185ZM134.511 41.4733C134.617 41.3836 134.702 41.2707 134.758 41.1431C134.815 41.0155 134.841 40.8768 134.835 40.7375C134.84 40.5996 134.812 40.4626 134.754 40.3374C134.696 40.2123 134.609 40.1026 134.501 40.0171C134.197 39.8144 133.835 39.72 133.471 39.7495H132.175V41.7512H133.42C133.805 41.7883 134.191 41.69 134.511 41.4733Z" fill="white"/>
<path d="M137.799 42.3583L138.581 41.1542C139.238 41.6006 140.01 41.8489 140.804 41.8695C141.179 41.8882 141.555 41.8139 141.895 41.6534C142.017 41.5927 142.119 41.4985 142.189 41.3818C142.259 41.2651 142.295 41.1308 142.291 40.9947C142.298 40.8355 142.253 40.6782 142.162 40.5471C142.041 40.4006 141.888 40.2843 141.715 40.2074C141.499 40.0942 141.174 39.9553 140.742 39.7855L140.459 39.6775C140.027 39.5125 139.608 39.3165 139.204 39.0909C138.897 38.9145 138.638 38.6675 138.447 38.3705C138.25 38.0343 138.151 37.6488 138.164 37.259C138.149 36.8071 138.301 36.3654 138.591 36.0189C138.888 35.6837 139.267 35.4333 139.692 35.2934C140.151 35.137 140.633 35.0588 141.118 35.0619C141.596 35.0662 142.072 35.1425 142.528 35.2883C143.021 35.4406 143.489 35.6643 143.917 35.952L143.125 37.1767C142.799 36.9713 142.455 36.799 142.095 36.6621C141.783 36.5526 141.454 36.4986 141.123 36.5026C140.819 36.4834 140.515 36.5512 140.248 36.6982C140.158 36.7499 140.082 36.8248 140.029 36.9152C139.977 37.0056 139.95 37.1082 139.95 37.2127C139.949 37.3457 139.99 37.4755 140.068 37.5832C140.187 37.7247 140.337 37.8373 140.505 37.9125C140.8 38.0616 141.104 38.1905 141.416 38.2984L141.684 38.3962C142.113 38.5531 142.533 38.737 142.939 38.9468C143.264 39.1213 143.541 39.3721 143.747 39.6775C143.977 40.0471 144.09 40.4775 144.071 40.9124C144.089 41.3905 143.944 41.8604 143.66 42.2451C143.368 42.6191 142.975 42.9014 142.528 43.0581C142.01 43.2447 141.462 43.3354 140.912 43.3257C139.796 43.356 138.701 43.0158 137.799 42.3583Z" fill="white"/>
<path d="M57.8726 30.4876L63.5327 15.0508H66.7127L72.3728 30.4876H69.373L68.1329 26.8856H62.1074L60.8467 30.4876H57.8726ZM62.8586 24.7039H67.3404L65.0867 18.2822L62.8586 24.7039Z" fill="white"/>
<path d="M75.4653 30.4876V15.0508H78.2903V28.2955H85.1442V30.4876H75.4653Z" fill="white"/>
<path d="M88.7461 30.4876V15.0508H91.5762V28.2955H98.4198V30.4876H88.7461Z" fill="white"/>
<path d="M102.001 30.4876V15.0508H104.826V30.4876H102.001Z" fill="white"/>
<path d="M107.939 30.4876L113.599 15.0508H116.779L122.439 30.4876H119.434L118.199 26.8856H112.158L110.898 30.4876H107.939ZM112.93 24.7039H117.412L115.158 18.2822L112.93 24.7039Z" fill="white"/>
<path d="M125.511 30.4876V15.0508H128.336L135.602 25.9337V15.0508H138.427V30.4876H135.602L128.336 19.6304V30.4876H125.511Z" fill="white"/>
<path d="M149.531 30.7602C148.125 30.7982 146.735 30.4512 145.512 29.7568C144.404 29.0872 143.511 28.114 142.939 26.9524C142.346 25.6431 142.039 24.2221 142.039 22.7845C142.039 21.3469 142.346 19.9259 142.939 18.6166C143.508 17.4473 144.401 16.4666 145.512 15.7917C146.731 15.0831 148.122 14.7268 149.531 14.7625C151.163 14.6935 152.771 15.1816 154.09 16.1467C155.301 17.1047 156.097 18.4922 156.313 20.0213H153.2C153.04 19.2367 152.603 18.5356 151.97 18.0454C151.246 17.5354 150.374 17.2818 149.49 17.325C148.856 17.2928 148.223 17.4075 147.641 17.6601C147.059 17.9127 146.544 18.2964 146.135 18.7812C145.322 19.7538 144.92 21.0865 144.92 22.7794C144.92 24.4723 145.322 25.7998 146.135 26.7621C146.877 27.5304 147.858 28.0254 148.917 28.1664C149.976 28.3074 151.052 28.0864 151.97 27.539C152.596 27.0892 153.034 26.4241 153.2 25.6712H156.313C156.081 27.1549 155.284 28.4916 154.09 29.4017C152.764 30.3497 151.159 30.8278 149.531 30.7602Z" fill="white"/>
<path d="M159.909 30.4876V15.0508H170V17.3251H162.734V21.5651H169.336V23.7726H162.734V28.2286H170V30.4876H159.909Z" fill="white"/>
<path d="M15.0663 14.8757C14.8275 14.6323 14.6619 14.3267 14.5882 13.9938C14.5145 13.6609 14.5357 13.3139 14.6495 12.9924C14.8294 12.4745 14.9216 11.9302 14.9222 11.3819C14.9222 10.4189 14.6366 9.4776 14.1015 8.67699C13.5664 7.87639 12.8058 7.25249 11.9161 6.88422C11.0263 6.51595 10.0473 6.41983 9.10297 6.60806C8.15855 6.79633 7.29121 7.26041 6.61065 7.94169C5.9301 8.62297 5.46689 9.49082 5.27969 10.4354C5.09243 11.38 5.18954 12.3589 5.55879 13.2482C5.92799 14.1377 6.55271 14.8975 7.35388 15.4318C8.15505 15.966 9.09669 16.2506 10.0596 16.2496C10.6863 16.2504 11.3069 16.1281 11.8863 15.8894C12.2213 15.7436 12.5921 15.701 12.9514 15.7669C13.3107 15.833 13.6421 16.0046 13.9034 16.2599L14.032 16.3834C14.3331 16.6849 14.5182 17.0828 14.5549 17.5072C14.5916 17.9316 14.4775 18.3554 14.2327 18.7041C12.4099 21.2928 11.3769 24.3546 11.2586 27.5184C11.2132 28.7477 11.3047 29.9782 11.5313 31.1873C11.5848 31.4606 11.5343 31.7441 11.3896 31.9821C11.2449 32.2201 11.0165 32.3954 10.7491 32.4737H10.7131C10.5279 32.5295 10.3312 32.5351 10.1432 32.4899C9.95508 32.4447 9.78239 32.3503 9.64285 32.2164C9.28255 31.856 8.81384 31.6239 8.3088 31.5558C7.80376 31.4877 7.29033 31.5873 6.84745 31.8395C6.40457 32.0915 6.05673 32.4821 5.85744 32.9511C5.6581 33.4201 5.61838 33.9417 5.74434 34.4355C5.87025 34.9293 6.15491 35.368 6.55446 35.6843C6.95407 36.0006 7.44645 36.1769 7.95602 36.1861C8.46554 36.1954 8.96399 36.0369 9.37471 35.7353C9.78548 35.4336 10.0858 35.0054 10.2294 34.5165C10.2789 34.3279 10.3758 34.1552 10.5109 34.0147C10.646 33.8742 10.8149 33.7706 11.0013 33.7137L11.1093 33.6829C11.3743 33.6061 11.6584 33.631 11.9059 33.7529C12.1534 33.8748 12.3464 34.0847 12.4472 34.3415C13.3402 36.5579 14.7024 38.5548 16.4403 40.1948C18.1782 41.8348 20.2506 43.0791 22.515 43.8422C24.7794 44.6053 27.1822 44.8691 29.5582 44.6154C31.9343 44.3618 34.2273 43.5968 36.2796 42.3729C38.3319 41.149 40.095 39.4953 41.4475 37.5254C42.8001 35.5555 43.7102 33.3162 44.1152 30.9612C44.5202 28.6062 44.4105 26.1915 43.7937 23.8829C43.177 21.5743 42.0677 19.4266 40.5421 17.5875C40.3361 17.3315 40.2172 17.0164 40.2026 16.6881C40.1881 16.3598 40.2786 16.0354 40.4612 15.7622C40.6437 15.4889 40.9087 15.2811 41.2176 15.1688C41.5264 15.0566 41.863 15.0458 42.1784 15.1382C42.5805 15.2562 43.0024 15.2913 43.4185 15.2411C43.9713 15.1734 44.4948 14.9546 44.9315 14.6088C45.3681 14.263 45.701 13.8036 45.8936 13.281C46.0862 12.7584 46.1311 12.1928 46.0234 11.6464C45.9156 11.1 45.6593 10.5938 45.2827 10.1835C44.906 9.77311 44.4236 9.47451 43.8884 9.3204C43.3532 9.16629 42.7859 9.16269 42.2487 9.3099C41.7116 9.45712 41.2253 9.74949 40.8435 10.155C40.4617 10.5604 40.1989 11.0633 40.0842 11.6083C39.9857 12.0855 40.0016 12.5792 40.1305 13.049C40.213 13.3167 40.2212 13.6017 40.1541 13.8737C40.087 14.1456 39.9472 14.3942 39.7497 14.5927L39.6365 14.7111C39.3808 14.9703 39.0403 15.1285 38.6774 15.1569C38.3144 15.1852 37.9534 15.0818 37.6606 14.8654C34.7521 12.6943 31.2077 11.5449 27.5786 11.5961C23.9494 11.6473 20.4389 12.8962 17.5928 15.1484C17.2448 15.4268 16.8066 15.5674 16.3616 15.5437C15.9167 15.52 15.496 15.3335 15.1795 15.0198L15.0663 14.8757ZM34.1461 28.7688C34.0219 29.9679 33.5605 31.1073 32.8154 32.055C32.0703 33.0026 31.072 33.7198 29.9361 34.1234C28.8002 34.5271 27.5732 34.6007 26.3971 34.3357C25.2211 34.0708 24.1443 33.4781 23.2912 32.6263C22.4381 31.7745 21.8439 30.6985 21.5772 29.5229C21.3105 28.3472 21.3823 27.1201 21.7843 25.9836C22.1863 24.8471 22.902 23.8477 23.8485 23.1012C24.7951 22.3547 25.9338 21.8917 27.1327 21.7657C28.0771 21.671 29.0308 21.7873 29.9248 22.1063C30.8187 22.4253 31.6306 22.9389 32.3018 23.6101C32.9729 24.2812 33.4865 25.0931 33.8055 25.9871C34.1245 26.881 34.2408 27.8347 34.1461 28.7791V28.7688Z" fill="white"/>
<path d="M2.59852 24.9356C4.03365 24.9356 5.19705 23.7722 5.19705 22.337C5.19705 20.9019 4.03365 19.7385 2.59852 19.7385C1.1634 19.7385 0 20.9019 0 22.337C0 23.7722 1.1634 24.9356 2.59852 24.9356Z" fill="white"/>
<path d="M21.699 3.78715C22.7448 3.78715 23.5926 2.93937 23.5926 1.89358C23.5926 0.847782 22.7448 0 21.699 0C20.6532 0 19.8054 0.847782 19.8054 1.89358C19.8054 2.93937 20.6532 3.78715 21.699 3.78715Z" fill="white"/>
<path d="M35.0466 6.97742C36.6011 6.97742 37.8612 5.71727 37.8612 4.16278C37.8612 2.6083 36.6011 1.34814 35.0466 1.34814C33.4921 1.34814 32.2319 2.6083 32.2319 4.16278C32.2319 5.71727 33.4921 6.97742 35.0466 6.97742Z" fill="white"/>
</svg>
