<svg width="170" height="45" viewBox="0 0 170 45" fill="none" xmlns="http://www.w3.org/2000/svg">
<path d="M81.542 42.3583L82.319 41.1542C82.9766 41.6001 83.7479 41.8483 84.5419 41.8695C84.9175 41.8882 85.2926 41.8139 85.6327 41.6534C85.7562 41.5939 85.8597 41.5001 85.9307 41.3833C86.0017 41.2664 86.0377 41.1315 86.0341 40.9947C86.0387 40.8358 85.994 40.6793 85.9055 40.5471C85.7825 40.4006 85.6276 40.2844 85.4526 40.2074C85.2365 40.0942 84.9381 39.9553 84.4801 39.7855L84.2023 39.6775C83.7685 39.5124 83.3471 39.3163 82.9416 39.0909C82.6375 38.9117 82.3787 38.6653 82.1852 38.3705C81.9891 38.0337 81.8929 37.6483 81.9073 37.259C81.8893 36.8067 82.0416 36.3642 82.3344 36.0189C82.6277 35.6827 83.0064 35.4321 83.4304 35.2934C83.891 35.137 84.3746 35.0588 84.8609 35.0619C85.3394 35.0665 85.8149 35.1428 86.2708 35.2883C86.7622 35.4408 87.2284 35.6644 87.655 35.952L86.8625 37.1767C86.5368 36.9725 86.1921 36.8002 85.8334 36.6621C85.5226 36.553 85.1954 36.499 84.866 36.5026C84.5599 36.483 84.2547 36.5508 83.9861 36.6982C83.9121 36.7422 83.8482 36.8014 83.7988 36.8718C83.7495 36.9422 83.715 37.0222 83.6985 37.1067C83.682 37.1912 83.6836 37.2782 83.7031 37.3621C83.7222 37.446 83.7592 37.5248 83.8112 37.5935C83.929 37.7362 84.0788 37.8491 84.2486 37.9228C84.5408 38.073 84.8434 38.202 85.1542 38.3087L85.4218 38.4065C85.8514 38.5634 86.2708 38.7473 86.6773 38.9571C87.003 39.1302 87.2804 39.3812 87.4852 39.6877C87.7162 40.0807 87.8304 40.5313 87.815 40.9868C87.7995 41.4424 87.655 41.8841 87.3977 42.2605C87.107 42.6334 86.7164 42.9155 86.2708 43.0735C85.7511 43.2598 85.202 43.3504 84.6499 43.3411C83.5338 43.367 82.4404 43.0213 81.542 42.3583Z" fill="#D11F26"/>
<path d="M95.5847 35.2317V36.7085H93.0685V43.1405H91.3859V36.7085H88.8594V35.2317H95.5847Z" fill="#D11F26"/>
<path d="M100.39 35.2317L103.236 43.0427V43.1405H101.394L100.761 41.252H97.8277L97.2051 43.1405H95.3887V43.0427L98.2342 35.2317H100.39ZM98.2908 39.8627H100.292L99.2633 36.8474L98.2908 39.8627Z" fill="#D11F26"/>
<path d="M109.776 35.2317V36.7085H107.27V43.1405H105.582V36.7085H103.051V35.2317H109.776Z" fill="#D11F26"/>
<path d="M116.455 41.6534H120.093V43.1405H114.768V35.2317H116.455V41.6534Z" fill="#D11F26"/>
<path d="M126.02 35.2317L128.881 43.0427V43.1405H127.039L126.406 41.252H123.473L122.851 43.1405H121.034V43.0427L123.88 35.2317H126.02ZM123.921 39.8627H125.922L124.893 36.8474L123.921 39.8627Z" fill="#D11F26"/>
<path d="M135.941 39.3996C136.153 39.5703 136.324 39.7866 136.441 40.0325C136.558 40.2784 136.617 40.5476 136.615 40.8198C136.632 41.1479 136.569 41.4751 136.433 41.7741C136.297 42.0731 136.092 42.3352 135.833 42.5384C135.175 42.9792 134.39 43.1907 133.6 43.1405H130.513V35.2317H133.405C133.948 35.2174 134.489 35.3065 135 35.4941C135.39 35.6374 135.729 35.8913 135.977 36.2248C136.202 36.5492 136.319 36.9363 136.312 37.3311C136.312 37.6795 136.204 38.0194 136.003 38.3036C135.766 38.6225 135.435 38.8584 135.056 38.9777C135.378 39.052 135.68 39.196 135.941 39.3996ZM132.185 36.6004V38.4425H133.163C134.063 38.4425 134.516 38.1184 134.516 37.4803C134.524 37.3547 134.501 37.229 134.448 37.1148C134.395 37.0006 134.314 36.9016 134.212 36.8268C133.951 36.6574 133.643 36.5779 133.332 36.6004H132.185ZM134.511 41.4733C134.617 41.3836 134.702 41.2707 134.758 41.1431C134.815 41.0155 134.841 40.8768 134.835 40.7375C134.84 40.5996 134.812 40.4626 134.754 40.3374C134.696 40.2123 134.609 40.1026 134.501 40.0171C134.197 39.8144 133.835 39.72 133.471 39.7495H132.175V41.7512H133.42C133.805 41.7883 134.191 41.69 134.511 41.4733Z" fill="#D11F26"/>
<path d="M137.799 42.3583L138.581 41.1542C139.238 41.6006 140.01 41.8489 140.804 41.8695C141.179 41.8882 141.555 41.8139 141.895 41.6534C142.017 41.5927 142.119 41.4985 142.189 41.3818C142.259 41.2651 142.295 41.1308 142.291 40.9947C142.298 40.8355 142.253 40.6782 142.162 40.5471C142.041 40.4006 141.888 40.2843 141.715 40.2074C141.499 40.0942 141.174 39.9553 140.742 39.7855L140.459 39.6775C140.027 39.5125 139.608 39.3165 139.204 39.0909C138.897 38.9145 138.638 38.6675 138.447 38.3705C138.25 38.0343 138.151 37.6488 138.164 37.259C138.149 36.8071 138.301 36.3654 138.591 36.0189C138.888 35.6837 139.267 35.4333 139.692 35.2934C140.151 35.137 140.633 35.0588 141.118 35.0619C141.596 35.0662 142.072 35.1425 142.528 35.2883C143.021 35.4406 143.489 35.6643 143.917 35.952L143.125 37.1767C142.799 36.9713 142.455 36.799 142.095 36.6621C141.783 36.5526 141.454 36.4986 141.123 36.5026C140.819 36.4834 140.515 36.5512 140.248 36.6982C140.158 36.7499 140.082 36.8248 140.029 36.9152C139.977 37.0056 139.95 37.1082 139.95 37.2127C139.949 37.3457 139.99 37.4755 140.068 37.5832C140.187 37.7247 140.337 37.8373 140.505 37.9125C140.8 38.0616 141.104 38.1905 141.416 38.2984L141.684 38.3962C142.113 38.5531 142.533 38.737 142.939 38.9468C143.264 39.1213 143.541 39.3721 143.747 39.6775C143.977 40.0471 144.09 40.4775 144.071 40.9124C144.089 41.3905 143.944 41.8604 143.66 42.2451C143.368 42.6191 142.975 42.9014 142.528 43.0581C142.01 43.2447 141.462 43.3354 140.912 43.3257C139.796 43.356 138.701 43.0158 137.799 42.3583Z" fill="#D11F26"/>
<path d="M57.8721 30.4876L63.5322 15.0508H66.7122L72.3723 30.4876H69.3725L68.1324 26.8856H62.1069L60.8462 30.4876H57.8721ZM62.8581 24.7039H67.34L65.0862 18.2822L62.8581 24.7039Z" fill="#125086"/>
<path d="M75.4648 30.4876V15.0508H78.2898V28.2955H85.1437V30.4876H75.4648Z" fill="#125086"/>
<path d="M88.7461 30.4876V15.0508H91.5762V28.2955H98.4198V30.4876H88.7461Z" fill="#125086"/>
<path d="M102.001 30.4876V15.0508H104.826V30.4876H102.001Z" fill="#125086"/>
<path d="M107.939 30.4876L113.6 15.0508H116.78L122.44 30.4876H119.435L118.2 26.8856H112.159L110.898 30.4876H107.939ZM112.931 24.7039H117.412L115.159 18.2822L112.931 24.7039Z" fill="#125086"/>
<path d="M125.511 30.4876V15.0508H128.336L135.601 25.9337V15.0508H138.426V30.4876H135.601L128.336 19.6304V30.4876H125.511Z" fill="#125086"/>
<path d="M149.531 30.7602C148.125 30.7982 146.735 30.4512 145.512 29.7568C144.404 29.0872 143.511 28.114 142.94 26.9524C142.346 25.6431 142.039 24.2221 142.039 22.7845C142.039 21.3469 142.346 19.9259 142.94 18.6166C143.508 17.4473 144.401 16.4666 145.512 15.7917C146.731 15.0831 148.122 14.7268 149.531 14.7625C151.164 14.6935 152.771 15.1816 154.09 16.1467C155.301 17.1047 156.097 18.4922 156.313 20.0213H153.2C153.04 19.2367 152.603 18.5356 151.97 18.0454C151.247 17.5354 150.374 17.2818 149.49 17.325C148.856 17.2928 148.224 17.4075 147.642 17.6601C147.06 17.9127 146.544 18.2964 146.135 18.7812C145.322 19.7538 144.921 21.0865 144.921 22.7794C144.921 24.4723 145.322 25.7998 146.135 26.7621C146.877 27.5304 147.858 28.0254 148.917 28.1664C149.977 28.3074 151.052 28.0864 151.97 27.539C152.596 27.0892 153.034 26.4241 153.2 25.6712H156.313C156.081 27.1549 155.284 28.4916 154.09 29.4017C152.764 30.3497 151.16 30.8278 149.531 30.7602Z" fill="#125086"/>
<path d="M159.909 30.4876V15.0508H170V17.3251H162.734V21.5651H169.336V23.7726H162.734V28.2286H170V30.4876H159.909Z" fill="#125086"/>
<path d="M15.0661 14.8757C14.8272 14.6323 14.6616 14.3267 14.5879 13.9938C14.5142 13.6609 14.5355 13.3139 14.6493 12.9924C14.8292 12.4745 14.9214 11.9302 14.922 11.3819C14.922 10.4189 14.6363 9.4776 14.1013 8.67699C13.5662 7.87639 12.8056 7.25249 11.9159 6.88422C11.0261 6.51595 10.0471 6.41983 9.10273 6.60806C8.15831 6.79633 7.29097 7.26041 6.61041 7.94169C5.92985 8.62297 5.46665 9.49082 5.27945 10.4354C5.09219 11.38 5.1893 12.3589 5.55855 13.2482C5.92774 14.1377 6.55247 14.8975 7.35364 15.4318C8.15481 15.966 9.09645 16.2506 10.0594 16.2496C10.686 16.2504 11.3067 16.1281 11.8861 15.8894C12.221 15.7436 12.5918 15.701 12.9511 15.7669C13.3104 15.833 13.6419 16.0046 13.9032 16.2599L14.0318 16.3834C14.3328 16.6849 14.5179 17.0828 14.5546 17.5072C14.5914 17.9316 14.4773 18.3554 14.2325 18.7041C12.4097 21.2928 11.3766 24.3546 11.2583 27.5184C11.213 28.7477 11.3045 29.9782 11.531 31.1873C11.5846 31.4606 11.5341 31.7441 11.3894 31.9821C11.2447 32.2201 11.0162 32.3954 10.7489 32.4737H10.7129C10.5277 32.5295 10.331 32.5351 10.1429 32.4899C9.95484 32.4447 9.78215 32.3503 9.6426 32.2164C9.28231 31.856 8.8136 31.6239 8.30856 31.5558C7.80352 31.4877 7.29009 31.5873 6.84721 31.8395C6.40433 32.0915 6.05649 32.4821 5.8572 32.9511C5.65786 33.4201 5.61813 33.9417 5.7441 34.4355C5.87001 34.9293 6.15466 35.368 6.55422 35.6843C6.95383 36.0006 7.44621 36.1769 7.95577 36.1861C8.46529 36.1954 8.96374 36.0369 9.37447 35.7353C9.78524 35.4336 10.0855 35.0054 10.2292 34.5165C10.2787 34.3279 10.3756 34.1552 10.5107 34.0147C10.6458 33.8742 10.8146 33.7706 11.001 33.7137L11.1091 33.6829C11.374 33.6061 11.6582 33.6311 11.9057 33.7529C12.1532 33.8748 12.3462 34.0847 12.4469 34.3415C13.3399 36.5579 14.7022 38.5548 16.4401 40.1948C18.178 41.8348 20.2503 43.0791 22.5148 43.8422C24.7792 44.6053 27.182 44.8691 29.558 44.6154C31.9341 44.3618 34.2271 43.5968 36.2794 42.3729C38.3317 41.149 40.0947 39.4953 41.4473 37.5254C42.7999 35.5555 43.7099 33.3162 44.1149 30.9612C44.5199 28.6062 44.4103 26.1915 43.7935 23.8829C43.1767 21.5743 42.0674 19.4266 40.5419 17.5875C40.3358 17.3315 40.2169 17.0164 40.2024 16.6881C40.1878 16.3598 40.2784 16.0354 40.4609 15.7622C40.6434 15.4889 40.9084 15.2811 41.2173 15.1688C41.5262 15.0566 41.8628 15.0458 42.1782 15.1382C42.5802 15.2562 43.0022 15.2913 43.4183 15.2411C43.9711 15.1734 44.4946 14.9546 44.9312 14.6088C45.3678 14.263 45.7007 13.8036 45.8933 13.281C46.086 12.7584 46.1309 12.1928 46.0231 11.6464C45.9153 11.1 45.6591 10.5938 45.2825 10.1835C44.9058 9.77311 44.4234 9.47451 43.8882 9.3204C43.353 9.16629 42.7857 9.16269 42.2485 9.3099C41.7113 9.45712 41.2251 9.74949 40.8433 10.155C40.4614 10.5604 40.1987 11.0633 40.0839 11.6083C39.9854 12.0855 40.0013 12.5792 40.1302 13.049C40.2128 13.3167 40.2209 13.6017 40.1538 13.8737C40.0868 14.1456 39.947 14.3942 39.7495 14.5927L39.6362 14.7111C39.3806 14.9703 39.04 15.1285 38.6771 15.1569C38.3141 15.1852 37.9532 15.0818 37.6603 14.8654C34.7519 12.6943 31.2075 11.5449 27.5783 11.5961C23.9492 11.6473 20.4387 12.8962 17.5925 15.1484C17.2445 15.4268 16.8064 15.5674 16.3614 15.5437C15.9164 15.52 15.4957 15.3335 15.1793 15.0198L15.0661 14.8757ZM34.1459 28.7688C34.0217 29.9679 33.5603 31.1073 32.8152 32.055C32.0701 33.0026 31.0718 33.7198 29.9359 34.1234C28.7999 34.5271 27.5729 34.6007 26.3969 34.3357C25.2209 34.0708 24.144 33.4781 23.2909 32.6263C22.4379 31.7745 21.8436 30.6985 21.5769 29.5229C21.3102 28.3472 21.382 27.1201 21.784 25.9836C22.186 24.8471 22.9018 23.8477 23.8483 23.1012C24.7949 22.3547 25.9335 21.8917 27.1325 21.7657C28.0769 21.671 29.0306 21.7873 29.9245 22.1063C30.8185 22.4253 31.6304 22.9389 32.3015 23.6101C32.9727 24.2812 33.4863 25.0931 33.8053 25.9871C34.1242 26.881 34.2406 27.8347 34.1459 28.7791V28.7688Z" fill="url(#paint0_linear_79_110)"/>
<path d="M2.59852 24.9356C4.03365 24.9356 5.19705 23.7722 5.19705 22.337C5.19705 20.9019 4.03365 19.7385 2.59852 19.7385C1.1634 19.7385 0 20.9019 0 22.337C0 23.7722 1.1634 24.9356 2.59852 24.9356Z" fill="url(#paint1_linear_79_110)"/>
<path d="M21.6992 3.78715C22.745 3.78715 23.5928 2.93937 23.5928 1.89358C23.5928 0.847782 22.745 0 21.6992 0C20.6534 0 19.8057 0.847782 19.8057 1.89358C19.8057 2.93937 20.6534 3.78715 21.6992 3.78715Z" fill="url(#paint2_linear_79_110)"/>
<path d="M35.0471 6.97742C36.6015 6.97742 37.8617 5.71727 37.8617 4.16278C37.8617 2.6083 36.6015 1.34814 35.0471 1.34814C33.4926 1.34814 32.2324 2.6083 32.2324 4.16278C32.2324 5.71727 33.4926 6.97742 35.0471 6.97742Z" fill="url(#paint3_linear_79_110)"/>
<defs>
<linearGradient id="paint0_linear_79_110" x1="5.19167" y1="25.5837" x2="46.0785" y2="25.5837" gradientUnits="userSpaceOnUse">
<stop stop-color="#084A94"/>
<stop offset="0.88" stop-color="#308FE7"/>
<stop offset="1" stop-color="#14AAE0"/>
</linearGradient>
<linearGradient id="paint1_linear_79_110" x1="0" y1="22.337" x2="5.1919" y2="22.337" gradientUnits="userSpaceOnUse">
<stop stop-color="#AD1825"/>
<stop offset="1" stop-color="#E02327"/>
</linearGradient>
<linearGradient id="paint2_linear_79_110" x1="165.573" y1="13.9367" x2="193.447" y2="13.9367" gradientUnits="userSpaceOnUse">
<stop stop-color="#AD1825"/>
<stop offset="1" stop-color="#E02327"/>
</linearGradient>
<linearGradient id="paint3_linear_79_110" x1="384.851" y1="46.889" x2="446.378" y2="46.889" gradientUnits="userSpaceOnUse">
<stop stop-color="#AD1825"/>
<stop offset="1" stop-color="#E02327"/>
</linearGradient>
</defs>
</svg>
