<svg width="23" height="31" viewBox="0 0 23 31" fill="none" xmlns="http://www.w3.org/2000/svg">
<path fill-rule="evenodd" clip-rule="evenodd" d="M11.2079 2.17065C8.74467 2.17065 6.38237 3.14914 4.64063 4.89088C2.8989 6.63261 1.9204 8.99491 1.9204 11.4581C1.9204 12.4364 2.29085 13.7833 2.95481 15.3727C3.61007 16.9413 4.5157 18.6644 5.50794 20.3678C7.49168 23.7734 9.78469 27.0374 11.0076 28.7228C11.1112 28.8655 11.3045 28.8655 11.4081 28.7228C12.631 27.0374 14.924 23.7734 16.9078 20.3678C17.9 18.6644 18.8056 16.9413 19.4609 15.3727C20.1249 13.7833 20.4953 12.4364 20.4953 11.4581C20.4953 8.99491 19.5168 6.63261 17.7751 4.89088C16.0333 3.14914 13.671 2.17065 11.2079 2.17065ZM3.45948 3.70972C5.51448 1.65473 8.30165 0.500244 11.2079 0.500244C14.1141 0.500244 16.9012 1.65473 18.9562 3.70972C21.0112 5.76472 22.1657 8.55189 22.1657 11.4581C22.1657 12.7777 21.6877 14.3755 21.0022 16.0166C20.308 17.6784 19.3631 19.4713 18.3511 21.2086C16.3264 24.6845 13.9962 28.0001 12.7601 29.7038C11.9895 30.7657 10.4262 30.7657 9.65564 29.7038C8.41947 28.0001 6.08927 24.6845 4.06456 21.2086C3.05258 19.4713 2.1077 17.6784 1.41348 16.0166C0.72797 14.3755 0.25 12.7777 0.25 11.4581C0.25 8.55189 1.40448 5.76472 3.45948 3.70972ZM8.56934 9.0188C8.50557 8.95354 8.45956 8.87303 8.43571 8.78495C8.43033 8.70552 8.44171 8.62584 8.46912 8.55109C8.53568 8.29929 8.53568 8.03451 8.46912 7.78271C8.38745 7.54349 8.23622 7.3341 8.03481 7.18136C7.83771 7.01973 7.58791 6.93646 7.33324 6.9475C7.08507 6.94614 6.84167 7.01568 6.63167 7.14795C6.43027 7.30069 6.27904 7.51008 6.19737 7.7493C6.10243 7.99487 6.09069 8.2648 6.16396 8.51768C6.25822 8.75927 6.42072 8.96821 6.63167 9.11903C6.83714 9.26488 7.08136 9.34628 7.33324 9.35289C7.48357 9.35139 7.63177 9.31719 7.76755 9.25266H8.03481L8.26867 9.38629H8.30208C8.3794 9.45483 8.42727 9.55058 8.43571 9.65356C8.42961 9.7567 8.40706 9.85821 8.36889 9.95423C7.91419 10.5893 7.65838 11.3451 7.63392 12.1258C7.60605 12.4281 7.62863 12.7329 7.70073 13.0278C7.7056 13.0963 7.69416 13.165 7.66733 13.2282C7.6278 13.2899 7.56911 13.3368 7.50028 13.3619H7.33324L7.23302 13.295C7.14176 13.2062 7.02465 13.1486 6.89857 13.1306C6.77248 13.1126 6.64393 13.1351 6.53145 13.1948C6.42837 13.2583 6.34686 13.3515 6.29759 13.4621C6.26739 13.5179 6.24886 13.5792 6.24312 13.6424C6.23737 13.7056 6.24454 13.7692 6.26419 13.8296C6.29128 13.9512 6.36275 14.0584 6.46463 14.1302C6.50874 14.1735 6.56097 14.2075 6.61831 14.2305C6.67565 14.2534 6.73696 14.2648 6.79871 14.2639C6.92834 14.2668 7.05603 14.232 7.1662 14.1636C7.25503 14.08 7.32359 13.9771 7.36665 13.863C7.37351 13.8122 7.39683 13.7651 7.43304 13.7289C7.46925 13.6927 7.51635 13.6694 7.5671 13.6625H7.60051C7.62421 13.6436 7.65367 13.6332 7.68403 13.6332C7.71439 13.6332 7.74385 13.6436 7.76755 13.6625L7.93459 13.7962C8.14155 14.3534 8.4729 14.8562 8.90342 15.2661C9.33025 15.6685 9.84498 15.9659 10.4068 16.1347C10.9628 16.3342 11.5572 16.4028 12.144 16.3352C12.7308 16.2697 13.2987 16.088 13.8144 15.8006C14.3142 15.4892 14.746 15.0802 15.0839 14.598C15.4119 14.1049 15.6285 13.5463 15.7187 12.961C15.8306 12.3845 15.8078 11.7899 15.6519 11.2237C15.5074 10.6562 15.2329 10.1301 14.8501 9.68697L14.7498 9.45311C14.7511 9.37063 14.7741 9.28995 14.8167 9.21925C14.8835 9.15244 14.9503 9.08562 15.0171 9.08562H15.251C15.3447 9.12976 15.4505 9.14151 15.5516 9.11903C15.6597 9.11679 15.7645 9.08184 15.8523 9.0188L16.0528 8.85176C16.104 8.76619 16.1487 8.67684 16.1864 8.5845C16.2195 8.48701 16.2195 8.38132 16.1864 8.28383C16.1883 8.23485 16.1805 8.18597 16.1633 8.14007C16.1461 8.09417 16.1198 8.05217 16.0862 8.01656C16.0502 7.92626 15.9929 7.84601 15.9191 7.78271L15.6519 7.64907H15.3512L15.0505 7.7493L14.8501 7.98315C14.787 8.07094 14.7521 8.17578 14.7498 8.28383C14.7167 8.38132 14.7167 8.48701 14.7498 8.5845C14.7674 8.61497 14.7767 8.64954 14.7767 8.68472C14.7767 8.71991 14.7674 8.75448 14.7498 8.78495C14.7527 8.81978 14.7446 8.85462 14.7266 8.88459C14.7086 8.91456 14.6817 8.93813 14.6496 8.95199C14.5718 9.01614 14.4804 9.06182 14.3823 9.08562C14.2949 9.08112 14.212 9.04558 14.1485 8.9854C13.4204 8.4573 12.5423 8.17631 11.6429 8.1836C10.7606 8.21848 9.90982 8.52148 9.2041 9.05221C9.16828 9.09526 9.12116 9.12745 9.06804 9.14516C9.01491 9.16287 8.9579 9.16539 8.90342 9.15244C8.84912 9.15704 8.79446 9.15053 8.74276 9.1333C8.69107 9.11607 8.64342 9.08848 8.60275 9.05221L8.56934 9.0188ZM13.2799 12.4264C13.2543 12.7319 13.138 13.0228 12.9458 13.2616C12.7659 13.4936 12.522 13.6678 12.2442 13.7628C11.9668 13.8665 11.6657 13.8897 11.3756 13.8296C11.0839 13.7595 10.8177 13.6091 10.6072 13.3953C10.3816 13.1941 10.2289 12.9239 10.1729 12.6269C10.1002 12.3402 10.1118 12.0386 10.2063 11.7583C10.3168 11.4824 10.4989 11.2409 10.7338 11.0589C10.9687 10.8768 11.2479 10.7608 11.5427 10.7226C11.7786 10.6947 12.0178 10.7175 12.2442 10.7894C12.4524 10.88 12.6443 11.0041 12.8122 11.1569C12.9838 11.3228 13.1103 11.5298 13.1797 11.7583C13.2801 11.9657 13.315 12.1987 13.2799 12.4264ZM5.93443 11.2962C5.8171 11.4135 5.66031 11.483 5.49458 11.4911C5.32301 11.4913 5.15793 11.4255 5.03354 11.3073C4.90916 11.1892 4.83499 11.0277 4.82641 10.8563C4.82629 10.7701 4.84375 10.6847 4.87772 10.6055C4.91169 10.5262 4.96145 10.4547 5.02398 10.3953C5.08651 10.3359 5.16048 10.2898 5.24139 10.26C5.3223 10.2301 5.40845 10.217 5.49458 10.2216C5.66292 10.2216 5.82437 10.2885 5.94341 10.4075C6.06245 10.5265 6.12933 10.688 6.12933 10.8563C6.12123 11.0221 6.05176 11.1789 5.93443 11.2962ZM10.2072 6.27917C10.3313 6.27917 10.4502 6.2299 10.5379 6.14218C10.6256 6.05447 10.6749 5.93551 10.6749 5.81146C10.6749 5.68742 10.6256 5.56845 10.5379 5.48074C10.4502 5.39302 10.3313 5.34375 10.2072 5.34375C10.0832 5.34375 9.9642 5.39302 9.87649 5.48074C9.78878 5.56845 9.7395 5.68742 9.7395 5.81146C9.7395 5.93551 9.78878 6.05447 9.87649 6.14218C9.9642 6.2299 10.0832 6.27917 10.2072 6.27917ZM13.777 6.99419C13.6937 7.02984 13.604 7.04817 13.5133 7.04805C13.3273 7.04805 13.1488 6.97414 13.0173 6.84257C12.8857 6.711 12.8118 6.53255 12.8118 6.34648C12.8117 6.25586 12.83 6.16615 12.8656 6.08283C12.9013 5.99951 12.9535 5.92431 13.0191 5.86181C13.0848 5.79931 13.1624 5.75081 13.2474 5.71926C13.3323 5.68772 13.4228 5.67379 13.5133 5.67832C13.6905 5.67832 13.8605 5.74872 13.9858 5.87402C14.1111 5.99933 14.1815 6.16928 14.1815 6.34648C14.186 6.437 14.1721 6.52749 14.1406 6.61245C14.109 6.69741 14.0605 6.77507 13.998 6.84069C13.9355 6.90632 13.8603 6.95855 13.777 6.99419Z" fill="url(#paint0_linear_135_44)"/>
<defs>
<linearGradient id="paint0_linear_135_44" x1="0.25" y1="0.500244" x2="23.5801" y2="29.3567" gradientUnits="userSpaceOnUse">
<stop stop-color="#0065B3"/>
<stop offset="0.843592" stop-color="#014B84"/>
</linearGradient>
</defs>
</svg>
