<svg width="9" height="14" viewBox="0 0 9 14" fill="none" xmlns="http://www.w3.org/2000/svg">
<path fill-rule="evenodd" clip-rule="evenodd" d="M5.06003 8.74502C5.06003 8.40169 5.28939 8.09834 5.6097 7.97472C7.15427 7.37864 8.24999 5.87978 8.24999 4.125C8.24999 1.84682 6.40317 0 4.125 0C1.84682 0 0 1.84682 0 4.125C0 5.87981 1.09575 7.37869 2.64036 7.97475C2.96066 8.09836 3.19003 8.4017 3.19003 8.74502C3.19003 9.5694 2.69225 10.3863 2.51379 11.1911C2.48818 11.3066 2.47468 11.4267 2.47468 11.5499C2.47468 12.4612 3.21341 13.1999 4.12468 13.1999C5.03595 13.1999 5.77468 12.4612 5.77468 11.5499C5.77468 11.4271 5.76125 11.3074 5.7358 11.1922C5.55782 10.387 5.06003 9.56968 5.06003 8.74502ZM4.12468 5.77488C5.03595 5.77488 5.77468 5.03615 5.77468 4.12488C5.77468 3.21361 5.03595 2.47488 4.12468 2.47488C3.21341 2.47488 2.47468 3.21361 2.47468 4.12488C2.47468 5.03615 3.21341 5.77488 4.12468 5.77488Z" fill="white" fill-opacity="0.75"/>
</svg>
