<svg width="229" height="530" viewBox="0 0 229 530" fill="none" xmlns="http://www.w3.org/2000/svg">
<path fill-rule="evenodd" clip-rule="evenodd" d="M147.194 298.482C145.568 298.992 144.206 300.486 143.681 302.107C143.568 302.455 143.431 302.8 143.268 303.139C141.313 307.206 136.431 308.918 132.364 306.963C128.297 305.008 126.585 300.126 128.54 296.059C130.495 291.992 135.377 290.28 139.444 292.235C139.745 292.38 140.033 292.541 140.308 292.716C141.83 293.687 143.921 294.078 145.644 293.538C147.354 293.002 148.886 291.006 148.546 289.246C147.611 284.408 148.167 279.239 150.466 274.457C153.517 268.111 159.017 263.736 165.287 261.921C167.197 261.368 168.446 259.219 168.22 257.243C168.192 256.998 168.17 256.756 168.154 256.518C167.989 254.091 166.336 251.282 164.491 249.696C160.624 246.373 160.183 240.543 163.507 236.676C166.83 232.809 172.659 232.368 176.527 235.691C180.394 239.015 180.835 244.844 177.511 248.711C177.177 249.101 176.816 249.456 176.435 249.775C174.618 251.3 173.098 254.297 173.368 256.653C173.627 258.913 175.302 261.115 177.511 261.656C179.093 262.042 180.66 262.599 182.187 263.333C194.018 269.02 198.998 283.222 193.31 295.053C192.178 297.409 190.708 299.493 188.986 301.276C187.614 302.696 187.519 305.135 188.569 306.807C189.314 307.995 190.788 308.603 192.188 308.524C193.024 308.477 193.882 308.559 194.736 308.785C199.099 309.938 201.7 314.409 200.547 318.772C199.394 323.135 194.922 325.736 190.56 324.583C186.197 323.43 183.595 318.958 184.749 314.596C184.886 314.076 185.071 313.581 185.297 313.115C185.934 311.799 185.991 310.151 185.214 308.912C184.189 307.279 181.972 306.365 180.164 307.036C174.325 309.204 167.647 309.089 161.59 306.177C158.392 304.64 155.695 302.48 153.573 299.914C152.194 298.245 149.26 297.835 147.194 298.482ZM179.919 288.614C182.051 284.177 180.184 278.851 175.747 276.718C171.311 274.586 165.985 276.453 163.852 280.89C161.719 285.326 163.587 290.652 168.024 292.785C172.46 294.918 177.786 293.05 179.919 288.614Z" fill="url(#paint0_linear_137_4)" fill-opacity="0.07"/>
<path fill-rule="evenodd" clip-rule="evenodd" d="M82.4376 63.2217C82.2327 62.8646 82.0521 62.5003 81.8953 62.1305C81.0267 60.0822 79.1744 58.2263 77.0475 57.5729C74.9363 56.9244 71.987 57.8831 71.1047 59.9079C68.6791 65.4748 64.5078 70.3385 58.836 73.5927C44.804 81.6436 26.9022 76.7951 18.8513 62.7631C17.9894 61.2608 14.8577 60.5034 13.2094 61.0352C12.4526 61.2793 11.6158 61.4857 10.7285 61.6378C9.02458 61.9298 7.64078 63.3233 7.07284 64.9561C6.73375 65.931 6.23778 66.87 5.57998 67.7367C2.21798 72.1664 -4.09843 73.0319 -8.52814 69.6699C-12.9578 66.308 -13.8234 59.9915 -10.4614 55.5618C-7.09941 51.1321 -0.782986 50.2666 3.64672 53.6286C4.17464 54.0292 4.65194 54.4719 5.0775 54.9483C6.27755 56.2917 8.12862 57.1314 9.90412 56.8271C12.1438 56.4433 15.2749 53.0481 15.0748 50.7846C14.0998 39.7579 19.4488 28.6491 29.6809 22.7783C43.7129 14.7274 61.6147 19.576 69.6656 33.608C71.8417 37.4006 73.0754 41.476 73.4401 45.5632C73.6772 48.2209 76.3721 50.6848 78.9228 51.4683C80.9295 52.0848 83.3566 51.5171 85.0204 50.237C85.3779 49.9619 85.7581 49.7077 86.1602 49.477C90.9837 46.7094 97.1375 48.3761 99.905 53.1996C102.672 58.0231 101.006 64.1769 96.1823 66.9444C91.3588 69.7119 85.2051 68.0452 82.4376 63.2217ZM38.7931 38.6631C33.5311 41.6822 31.7129 48.3954 34.732 53.6574C37.7511 58.9194 44.4643 60.7376 49.7263 57.7185C54.9882 54.6994 56.8065 47.9862 53.7874 42.7242C50.7683 37.4623 44.0551 35.644 38.7931 38.6631Z" fill="url(#paint1_linear_137_4)" fill-opacity="0.07"/>
<path fill-rule="evenodd" clip-rule="evenodd" d="M43.0352 361.173C45.0099 360.115 46.4029 357.849 46.6824 355.627C46.7426 355.149 46.8355 354.669 46.9629 354.191C48.4894 348.455 54.3767 345.043 60.1125 346.569C65.8483 348.096 69.2606 353.983 67.734 359.719C66.2075 365.455 60.3202 368.867 54.5844 367.34C54.1597 367.227 53.7478 367.09 53.3496 366.931C51.1446 366.051 48.3466 366.06 46.2536 367.181C44.1754 368.295 42.6859 371.251 43.5578 373.441C45.9547 379.462 46.5069 386.278 44.7121 393.023C42.3302 401.972 36.2991 408.977 28.644 412.864C26.3115 414.048 25.2251 417.133 26.0034 419.63C26.0997 419.939 26.1875 420.246 26.2671 420.551C27.0763 423.647 29.903 426.87 32.6769 428.466C38.4911 431.809 40.4938 439.233 37.1501 445.047C33.8063 450.862 26.3824 452.864 20.5682 449.521C14.7541 446.177 12.7514 438.753 16.0951 432.939C16.4318 432.353 16.8099 431.806 17.2236 431.3C19.197 428.883 20.4241 424.637 19.4959 421.658C18.6057 418.801 15.9004 416.367 12.9123 416.212C10.7726 416.101 8.61199 415.767 6.45872 415.194C-10.2272 410.754 -20.1539 393.627 -15.7131 376.941C-14.8289 373.619 -13.4417 370.564 -11.6552 367.838C-10.2318 365.666 -10.7084 362.491 -12.4759 360.588C-13.7316 359.236 -15.7846 358.813 -17.5751 359.259C-18.6441 359.525 -19.7726 359.63 -20.931 359.549C-26.8517 359.131 -31.3128 353.992 -30.8951 348.072C-30.4773 342.151 -25.339 337.69 -19.4182 338.108C-13.4975 338.525 -9.03645 343.664 -9.45418 349.585C-9.50397 350.29 -9.62081 350.975 -9.79806 351.634C-10.2978 353.49 -9.96734 355.634 -8.65891 357.043C-6.93292 358.901 -3.84372 359.537 -1.67304 358.225C5.33921 353.988 13.9975 352.496 22.5403 354.769C27.0505 355.97 31.0669 358.097 34.4392 360.892C36.632 362.709 40.5247 362.518 43.0352 361.173ZM3.17475 381.969C1.50945 388.227 5.23195 394.649 11.4892 396.314C17.7464 397.98 24.1689 394.257 25.8342 388C27.4995 381.743 23.777 375.32 17.5198 373.655C11.2625 371.99 4.84005 375.712 3.17475 381.969Z" fill="url(#paint2_linear_137_4)" fill-opacity="0.07"/>
<path fill-rule="evenodd" clip-rule="evenodd" d="M120.756 492.433C126.18 490.049 133.195 491.926 138.649 494.242C142.89 496.043 147.836 496.158 152.388 494.158C161.144 490.31 165.123 480.093 161.276 471.337C157.428 462.58 147.21 458.601 138.454 462.449C134.484 464.193 131.495 467.248 129.774 470.882C127.115 476.493 123.389 482.99 117.704 485.488C113.144 487.491 107.559 486.124 102.816 484.605C99.5646 483.564 95.9347 483.66 92.5634 485.141C85.2303 488.364 81.8978 496.92 85.1201 504.253C88.3423 511.587 96.8991 514.919 104.232 511.697C107.826 510.118 110.458 507.258 111.83 503.889C113.664 499.383 116.302 494.39 120.756 492.433ZM143.067 485.784C147.098 487.153 151.477 484.995 152.847 480.964C154.216 476.932 152.058 472.553 148.027 471.184C143.995 469.814 139.616 471.972 138.247 476.004C136.877 480.035 139.035 484.414 143.067 485.784Z" fill="url(#paint3_linear_137_4)" fill-opacity="0.07"/>
<circle cx="145.726" cy="327" r="4" fill="url(#paint4_linear_137_4)" fill-opacity="0.07"/>
<circle cx="104.5" cy="442.5" r="5.5" fill="url(#paint5_linear_137_4)" fill-opacity="0.07"/>
<circle cx="56.5" cy="247.5" r="8.5" fill="url(#paint6_linear_137_4)" fill-opacity="0.07"/>
<circle cx="131.145" cy="132.145" r="12.1347" transform="rotate(47.5147 131.145 132.145)" fill="url(#paint7_linear_137_4)" fill-opacity="0.07"/>
<circle cx="210.5" cy="34.5" r="5.5" fill="url(#paint8_linear_137_4)" fill-opacity="0.07"/>
<defs>
<linearGradient id="paint0_linear_137_4" x1="125" y1="303.423" x2="230.236" y2="299.413" gradientUnits="userSpaceOnUse">
<stop stop-color="#0065B3"/>
<stop offset="1" stop-color="#005292"/>
</linearGradient>
<linearGradient id="paint1_linear_137_4" x1="104.916" y1="61.9333" x2="-3.45324" y2="13.3004" gradientUnits="userSpaceOnUse">
<stop stop-color="#0065B3"/>
<stop offset="1" stop-color="#005292"/>
</linearGradient>
<linearGradient id="paint2_linear_137_4" x1="70.498" y1="349.333" x2="-64.4982" y2="380.386" gradientUnits="userSpaceOnUse">
<stop stop-color="#0065B3"/>
<stop offset="1" stop-color="#005292"/>
</linearGradient>
<linearGradient id="paint3_linear_137_4" x1="120.203" y1="478.737" x2="104.709" y2="500.29" gradientUnits="userSpaceOnUse">
<stop stop-color="#0065B3"/>
<stop offset="1" stop-color="#005292"/>
</linearGradient>
<linearGradient id="paint4_linear_137_4" x1="141.726" y1="323" x2="147.298" y2="332.434" gradientUnits="userSpaceOnUse">
<stop stop-color="#0065B3"/>
<stop offset="1" stop-color="#005292"/>
</linearGradient>
<linearGradient id="paint5_linear_137_4" x1="99" y1="437" x2="106.661" y2="449.972" gradientUnits="userSpaceOnUse">
<stop stop-color="#0065B3"/>
<stop offset="1" stop-color="#005292"/>
</linearGradient>
<linearGradient id="paint6_linear_137_4" x1="48" y1="239" x2="59.8404" y2="259.047" gradientUnits="userSpaceOnUse">
<stop stop-color="#0065B3"/>
<stop offset="1" stop-color="#005292"/>
</linearGradient>
<linearGradient id="paint7_linear_137_4" x1="119.01" y1="120.01" x2="135.913" y2="148.63" gradientUnits="userSpaceOnUse">
<stop stop-color="#0065B3"/>
<stop offset="1" stop-color="#005292"/>
</linearGradient>
<linearGradient id="paint8_linear_137_4" x1="205" y1="29" x2="212.661" y2="41.9718" gradientUnits="userSpaceOnUse">
<stop stop-color="#0065B3"/>
<stop offset="1" stop-color="#005292"/>
</linearGradient>
</defs>
</svg>
