<svg width="237" height="558" viewBox="0 0 237 558" fill="none" xmlns="http://www.w3.org/2000/svg">
<path fill-rule="evenodd" clip-rule="evenodd" d="M132.918 116.797C133.845 119.272 136.277 121.257 138.833 121.932C139.384 122.077 139.931 122.261 140.471 122.485C146.941 125.17 150.01 132.591 147.325 139.061C144.64 145.531 137.219 148.6 130.749 145.915C124.279 143.231 121.21 135.809 123.895 129.339C124.093 128.861 124.318 128.401 124.566 127.961C125.941 125.519 126.368 122.244 125.385 119.62C124.345 116.844 119.851 112.97 116.894 113.174C108.456 113.755 99.8035 111.024 93.0555 104.88C84.1389 96.7622 80.8425 84.7761 83.3957 73.8111C83.6232 72.834 82.9174 71.8574 81.9298 71.6814C81.71 71.6422 81.4941 71.5984 81.2826 71.5505C79.1396 71.0646 76.2798 71.7681 74.4304 72.9547C70.5527 75.4427 65.3923 74.3161 62.9043 70.4384C60.4163 66.5607 61.543 61.4003 65.4207 58.9123C69.2984 56.4243 74.4588 57.551 76.9467 61.4287C77.1974 61.8194 77.4114 62.2232 77.5896 62.6359C78.4391 64.6037 80.6411 66.6958 82.7512 67.0719C84.2792 67.3442 85.9228 66.7096 86.6856 65.358C87.8508 63.2935 89.2642 61.3267 90.9277 59.4995C98.0871 51.6356 108.255 48.1432 118.078 49.1796C122.158 49.61 130.497 43.5003 133.259 40.4667C137.657 35.6367 145.137 35.286 149.967 39.6833C151.422 41.0081 152.47 42.6127 153.105 44.3403C153.496 45.4055 156.071 46.8124 157.204 46.8611C158.3 46.9083 159.452 46.301 160.123 45.4341C160.269 45.2466 160.428 45.0667 160.602 44.8959C162.678 42.8597 166.01 42.8912 168.047 44.9663C170.083 47.0414 170.051 50.3742 167.976 52.4104C165.901 54.4466 162.568 54.4151 160.532 52.34C160.382 52.1873 160.243 52.0277 160.116 51.8624C159.406 50.9409 158.223 50.2467 157.061 50.1967C155.977 50.15 153.505 51.4049 153.139 52.4261C152.628 53.8513 151.833 55.2014 150.75 56.3908C148.184 59.2097 144.043 67.5236 145.223 71.1484C148.683 81.7713 146.495 93.9004 138.436 102.752C137.336 103.96 136.166 105.065 134.936 106.066C132.597 107.971 131.859 113.972 132.918 116.797ZM105.769 73.018C110.248 68.0983 117.867 67.7411 122.787 72.2201C127.706 76.699 128.064 84.3181 123.585 89.2378C119.106 94.1574 111.487 94.5147 106.567 90.0357C101.647 85.5567 101.29 77.9376 105.769 73.018ZM138.724 45.443C140.373 43.6318 143.178 43.5002 144.989 45.1492C146.8 46.7982 146.932 49.6033 145.283 51.4145C143.634 53.2258 140.829 53.3573 139.017 51.7083C137.206 50.0593 137.075 47.2542 138.724 45.443Z" fill="url(#paint0_linear_137_3)" fill-opacity="0.07"/>
<path fill-rule="evenodd" clip-rule="evenodd" d="M117.774 426.63C119.58 426.191 121.702 426.733 123.201 427.833C123.471 428.031 123.756 428.215 124.055 428.384C128.102 430.666 133.233 429.236 135.516 425.188C137.798 421.141 136.367 416.01 132.32 413.728C128.273 411.445 123.142 412.876 120.86 416.923C120.669 417.262 120.504 417.608 120.364 417.959C119.717 419.588 118.217 421.031 116.514 421.445C114.57 421.918 110.676 420.955 109.608 419.263C109.046 418.373 108.412 417.514 107.704 416.694C101.468 409.469 91.4389 407.454 83.119 411.052C80.7966 412.056 77.9037 411.453 76.3609 409.448C73.5883 405.844 73.071 400.031 74.8439 395.844C78.2828 387.722 77.08 378.001 70.9274 370.873C62.2968 360.874 47.1946 359.765 37.1958 368.395C31.6191 373.209 28.8078 380.035 28.9091 386.867C28.9296 388.245 27.8853 389.455 26.5363 389.735C24.2254 390.215 21.1182 388.978 19.4441 387.314C19.0928 386.965 18.7085 386.64 18.292 386.343C14.1606 383.398 8.42388 384.359 5.4788 388.491C2.53372 392.622 3.49546 398.359 7.62691 401.304C11.7584 404.249 17.495 403.288 20.4401 399.156C21.8447 397.186 24.4795 395.296 26.8691 394.915C27.1049 394.877 27.3436 394.833 27.5844 394.783C28.9847 394.493 30.485 395.181 31.0824 396.481C32.0002 398.477 33.2107 400.38 34.7185 402.127C40.8234 409.199 50.1664 411.824 58.6508 409.7C62.8218 408.656 68.2042 410.298 70.8261 413.706C72.7372 416.19 73.0065 419.689 71.829 422.593C68.9206 429.767 70.0377 438.277 75.4434 444.54C76.514 445.78 77.6964 446.867 78.9626 447.798C79.7925 448.408 80.0797 449.542 79.7787 450.527C79.3634 451.886 77.811 453.17 76.4477 453.573C76.1617 453.657 75.8788 453.766 75.6016 453.9C72.8502 455.23 71.698 458.539 73.028 461.29C74.3581 464.041 77.6667 465.194 80.4181 463.864C83.1695 462.534 84.3217 459.225 82.9916 456.474C82.3572 455.161 82.1212 453.222 82.6115 451.849C82.6598 451.714 82.7057 451.576 82.7489 451.434C82.9435 450.797 83.6432 450.41 84.2691 450.638C91.2867 453.191 99.4418 451.973 105.497 446.747C110.078 442.792 112.565 437.312 112.854 431.709C112.955 429.746 115.863 427.094 117.774 426.63ZM86.3535 424.571C83.0128 427.455 82.6422 432.5 85.5258 435.841C88.4093 439.182 93.455 439.552 96.7957 436.669C100.136 433.785 100.507 428.74 97.6234 425.399C94.7398 422.058 89.6941 421.688 86.3535 424.571ZM46.9639 379.714C43.2144 382.951 42.7984 388.614 46.0349 392.363C49.2714 396.113 54.9347 396.529 58.6842 393.292C62.4338 390.056 62.8497 384.393 59.6132 380.643C56.3768 376.894 50.7135 376.478 46.9639 379.714Z" fill="url(#paint1_linear_137_3)" fill-opacity="0.07"/>
<path fill-rule="evenodd" clip-rule="evenodd" d="M175.153 227.29C175.005 227.619 174.839 227.934 174.657 228.236C173.65 229.905 173.286 232.174 173.915 234.019C174.541 235.851 176.738 237.451 178.628 237.036C183.826 235.895 189.423 236.355 194.648 238.707C207.577 244.525 213.341 259.722 207.522 272.651C206.9 274.034 207.973 276.646 209.197 277.542C209.76 277.954 210.337 278.442 210.901 278.994C211.984 280.053 213.685 280.318 215.135 279.882C216.001 279.621 216.922 279.491 217.876 279.512C222.748 279.62 226.61 283.657 226.502 288.53C226.393 293.402 222.356 297.264 217.484 297.156C212.611 297.048 208.749 293.01 208.857 288.138C208.87 287.557 208.939 286.99 209.059 286.442C209.395 284.9 209.04 283.155 207.911 282.052C206.487 280.66 202.467 280.184 200.964 281.49C193.64 287.852 183.006 289.768 173.578 285.525C160.65 279.706 154.886 264.509 160.704 251.581C162.277 248.086 164.534 245.115 167.247 242.755C169.012 241.22 169.374 238.04 168.619 235.827C168.025 234.086 166.374 232.656 164.61 232.133C164.231 232.021 163.855 231.882 163.485 231.715C159.04 229.715 157.059 224.491 159.059 220.047C161.059 215.603 166.283 213.621 170.728 215.621C175.172 217.622 177.153 222.846 175.153 227.29ZM180.166 270.89C185.014 273.072 190.713 270.911 192.895 266.063C195.077 261.214 192.916 255.515 188.067 253.333C183.219 251.152 177.52 253.313 175.338 258.161C173.156 263.009 175.318 268.708 180.166 270.89Z" fill="url(#paint2_linear_137_3)" fill-opacity="0.07"/>
<circle cx="83.283" cy="148.283" r="5.94655" transform="rotate(-15 83.283 148.283)" fill="url(#paint3_linear_137_3)" fill-opacity="0.07"/>
<circle cx="79" cy="232" r="9" fill="url(#paint4_linear_137_3)" fill-opacity="0.07"/>
<circle cx="110.5" cy="318.5" r="11.5" fill="url(#paint5_linear_137_3)" fill-opacity="0.07"/>
<circle cx="204.13" cy="532.129" r="17.8253" transform="rotate(49.5491 204.13 532.129)" fill="url(#paint6_linear_137_3)" fill-opacity="0.07"/>
<defs>
<linearGradient id="paint0_linear_137_3" x1="120.879" y1="149.221" x2="159.708" y2="40.9698" gradientUnits="userSpaceOnUse">
<stop stop-color="#0065B3"/>
<stop offset="1" stop-color="#005292"/>
</linearGradient>
<linearGradient id="paint1_linear_137_3" x1="136.907" y1="431.951" x2="68.7098" y2="397.774" gradientUnits="userSpaceOnUse">
<stop stop-color="#0065B3"/>
<stop offset="1" stop-color="#005292"/>
</linearGradient>
<linearGradient id="paint2_linear_137_3" x1="162.681" y1="212" x2="183.889" y2="313.912" gradientUnits="userSpaceOnUse">
<stop stop-color="#0065B3"/>
<stop offset="1" stop-color="#005292"/>
</linearGradient>
<linearGradient id="paint3_linear_137_3" x1="77.3365" y1="142.336" x2="85.6199" y2="156.361" gradientUnits="userSpaceOnUse">
<stop stop-color="#0065B3"/>
<stop offset="1" stop-color="#005292"/>
</linearGradient>
<linearGradient id="paint4_linear_137_3" x1="70" y1="223" x2="82.5369" y2="244.227" gradientUnits="userSpaceOnUse">
<stop stop-color="#0065B3"/>
<stop offset="1" stop-color="#005292"/>
</linearGradient>
<linearGradient id="paint5_linear_137_3" x1="99" y1="307" x2="115.019" y2="334.123" gradientUnits="userSpaceOnUse">
<stop stop-color="#0065B3"/>
<stop offset="1" stop-color="#005292"/>
</linearGradient>
<linearGradient id="paint6_linear_137_3" x1="186.304" y1="514.304" x2="211.135" y2="556.345" gradientUnits="userSpaceOnUse">
<stop stop-color="#0065B3"/>
<stop offset="1" stop-color="#005292"/>
</linearGradient>
</defs>
</svg>
