<svg width="18" height="15" viewBox="0 0 18 15" fill="none" xmlns="http://www.w3.org/2000/svg">
<path d="M0.918752 12.5H17.4563V14.5H0.918752V12.5ZM17.9239 3.027C17.8 2.6219 17.5333 2.28696 17.1825 2.09586C16.8317 1.90477 16.4256 1.87316 16.0534 2.008L11.9438 3.5L4.59376 0.5L2.75626 1.5L8.26877 5.5L4.59376 7.5L0.918752 5.5L0 6.5L3.67501 10.5L17.0401 5.045C17.3987 4.89847 17.6911 4.60635 17.856 4.23002C18.0208 3.85369 18.0451 3.42248 17.9239 3.027Z" fill="white"/>
<path d="M0.918752 12.5H17.4563V14.5H0.918752V12.5ZM17.9239 3.027C17.8 2.6219 17.5333 2.28696 17.1825 2.09586C16.8317 1.90477 16.4256 1.87316 16.0534 2.008L11.9438 3.5L4.59376 0.5L2.75626 1.5L8.26877 5.5L4.59376 7.5L0.918752 5.5L0 6.5L3.67501 10.5L17.0401 5.045C17.3987 4.89847 17.6911 4.60635 17.856 4.23002C18.0208 3.85369 18.0451 3.42248 17.9239 3.027Z" fill="url(#paint0_linear_92_1713)"/>
<defs>
<linearGradient id="paint0_linear_92_1713" x1="0" y1="0.5" x2="8.44708" y2="18.8883" gradientUnits="userSpaceOnUse">
<stop stop-color="#0065B3"/>
<stop offset="1" stop-color="#005A9F"/>
</linearGradient>
</defs>
</svg>
