<svg width="95" height="15" viewBox="0 0 95 15" fill="none" xmlns="http://www.w3.org/2000/svg">
<path d="M6.98062 1.24871C7.17277 0.786732 7.82721 0.786732 8.01936 1.24871L9.35182 4.45233C9.43283 4.64709 9.61598 4.78016 9.82624 4.79702L13.2848 5.07429C13.7836 5.11427 13.9858 5.73669 13.6058 6.06219L10.9707 8.31941C10.8105 8.45663 10.7406 8.67194 10.7895 8.87712L11.5946 12.2521C11.7107 12.7388 11.1812 13.1235 10.7542 12.8627L7.7932 11.0541C7.61319 10.9441 7.38679 10.9441 7.20679 11.0541L4.24576 12.8627C3.81876 13.1235 3.28931 12.7388 3.4054 12.2521L4.21046 8.87712C4.2594 8.67194 4.18944 8.45663 4.02925 8.31941L1.39418 6.06219C1.01419 5.73668 1.21642 5.11427 1.71516 5.07429L5.17374 4.79702C5.384 4.78016 5.56716 4.64709 5.64816 4.45233L6.98062 1.24871Z" fill="#308FE7"/>
<path d="M26.9806 1.24871C27.1728 0.786732 27.8272 0.786732 28.0194 1.24871L29.3518 4.45233C29.4328 4.64709 29.616 4.78016 29.8262 4.79702L33.2848 5.07429C33.7836 5.11427 33.9858 5.73669 33.6058 6.06219L30.9707 8.31941C30.8105 8.45663 30.7406 8.67194 30.7895 8.87712L31.5946 12.2521C31.7107 12.7388 31.1812 13.1235 30.7542 12.8627L27.7932 11.0541C27.6132 10.9441 27.3868 10.9441 27.2068 11.0541L24.2458 12.8627C23.8188 13.1235 23.2893 12.7388 23.4054 12.2521L24.2105 8.87712C24.2594 8.67194 24.1894 8.45663 24.0293 8.31941L21.3942 6.06219C21.0142 5.73668 21.2164 5.11427 21.7152 5.07429L25.1737 4.79702C25.384 4.78016 25.5672 4.64709 25.6482 4.45233L26.9806 1.24871Z" fill="#308FE7"/>
<path d="M66.9806 1.24871C67.1728 0.786732 67.8272 0.786732 68.0194 1.24871L69.3518 4.45233C69.4328 4.64709 69.616 4.78016 69.8262 4.79702L73.2848 5.07429C73.7836 5.11427 73.9858 5.73669 73.6058 6.06219L70.9707 8.31941C70.8105 8.45663 70.7406 8.67194 70.7895 8.87712L71.5946 12.2521C71.7107 12.7388 71.1812 13.1235 70.7542 12.8627L67.7932 11.0541C67.6132 10.9441 67.3868 10.9441 67.2068 11.0541L64.2458 12.8627C63.8188 13.1235 63.2893 12.7388 63.4054 12.2521L64.2105 8.87712C64.2594 8.67194 64.1894 8.45663 64.0293 8.31941L61.3942 6.06219C61.0142 5.73668 61.2164 5.11427 61.7152 5.07429L65.1737 4.79702C65.384 4.78016 65.5672 4.64709 65.6482 4.45233L66.9806 1.24871Z" fill="#308FE7"/>
<path d="M46.9806 1.24871C47.1728 0.786732 47.8272 0.786732 48.0194 1.24871L49.3518 4.45233C49.4328 4.64709 49.616 4.78016 49.8262 4.79702L53.2848 5.07429C53.7836 5.11427 53.9858 5.73669 53.6058 6.06219L50.9707 8.31941C50.8105 8.45663 50.7406 8.67194 50.7895 8.87712L51.5946 12.2521C51.7107 12.7388 51.1812 13.1235 50.7542 12.8627L47.7932 11.0541C47.6132 10.9441 47.3868 10.9441 47.2068 11.0541L44.2458 12.8627C43.8188 13.1235 43.2893 12.7388 43.4054 12.2521L44.2105 8.87712C44.2594 8.67194 44.1894 8.45663 44.0293 8.31941L41.3942 6.06219C41.0142 5.73668 41.2164 5.11427 41.7152 5.07429L45.1737 4.79702C45.384 4.78016 45.5672 4.64709 45.6482 4.45233L46.9806 1.24871Z" fill="#308FE7"/>
<path d="M86.9806 1.24871C87.1728 0.786732 87.8272 0.786732 88.0194 1.24871L89.3518 4.45233C89.4328 4.64709 89.616 4.78016 89.8262 4.79702L93.2848 5.07429C93.7836 5.11427 93.9858 5.73669 93.6058 6.06219L90.9707 8.31941C90.8105 8.45663 90.7406 8.67194 90.7895 8.87712L91.5946 12.2521C91.7107 12.7388 91.1812 13.1235 90.7542 12.8627L87.7932 11.0541C87.6132 10.9441 87.3868 10.9441 87.2068 11.0541L84.2458 12.8627C83.8188 13.1235 83.2893 12.7388 83.4054 12.2521L84.2105 8.87712C84.2594 8.67194 84.1894 8.45663 84.0293 8.31941L81.3942 6.06219C81.0142 5.73668 81.2164 5.11427 81.7152 5.07429L85.1737 4.79702C85.384 4.78016 85.5672 4.64709 85.6482 4.45233L86.9806 1.24871Z" fill="#308FE7"/>
</svg>
