<svg width="13" height="13" viewBox="0 0 13 13" fill="none" xmlns="http://www.w3.org/2000/svg">
<path d="M5.98062 1.24871C6.17277 0.786732 6.82721 0.786732 7.01936 1.24871L8.35182 4.45233C8.43283 4.64709 8.61598 4.78016 8.82624 4.79702L12.2848 5.07429C12.7836 5.11427 12.9858 5.73669 12.6058 6.06219L9.97073 8.31941C9.81054 8.45663 9.74058 8.67194 9.78952 8.87712L10.5946 12.2521C10.7107 12.7388 10.1812 13.1235 9.75422 12.8627L6.7932 11.0541C6.61319 10.9441 6.38679 10.9441 6.20679 11.0541L3.24576 12.8627C2.81876 13.1235 2.28931 12.7388 2.4054 12.2521L3.21046 8.87712C3.2594 8.67194 3.18944 8.45663 3.02925 8.31941L0.394175 6.06219C0.0141858 5.73668 0.21642 5.11427 0.715162 5.07429L4.17374 4.79702C4.384 4.78016 4.56716 4.64709 4.64816 4.45233L5.98062 1.24871Z" fill="#308FE7"/>
</svg>
